<svg xmlns="http://www.w3.org/2000/svg" xmlns:x="adobe:ns:meta/" xmlns:xap="http://ns.adobe.com/xap/1.0/" xmlns:xapGImg="http://ns.adobe.com/xap/1.0/g/img/" xmlns:xlink="http://www.w3.org/1999/xlink" xmlns:xml="http://www.w3.org/XML/1998/namespace" id="svg3932" width="64" height="64" enable-background="new 0 0 256 256" overflow="visible" viewBox="0 0 256 256" xml:space="preserve"><defs id="defs4036"><linearGradient id="XMLID_13_" x1="-406.5" x2="-406.5" y1="512.5" y2="278.5" gradientTransform="matrix(1 0 0 -1 535.5 523.5)" gradientUnits="userSpaceOnUse"><stop style="stop-color:#494949" id="stop3939" offset="0"/><stop style="stop-color:#000" id="stop3940" offset="1"/></linearGradient><linearGradient id="XMLID_14_" x1="-506.447" x2="-308.553" y1="494.447" y2="296.553" gradientTransform="matrix(1 0 0 -1 535.5 523.5)" gradientUnits="userSpaceOnUse"><stop style="stop-color:#fff" id="stop3947" offset="0"/><stop style="stop-color:#dadada" id="stop3948" offset="1"/></linearGradient><linearGradient id="XMLID_15_" x1="-117.002" x2="12.991" y1="397.34" y2="397.34" gradientTransform="matrix(1 0 0 -1 178.5 523.5)" gradientUnits="userSpaceOnUse"><stop style="stop-color:#0053bd" id="stop3957" offset="0"/><stop style="stop-color:#0032a4" id="stop3958" offset=".994"/></linearGradient><radialGradient id="XMLID_16_" cx="-57.022" cy="439.632" r="97.988" fx="-57.022" fy="439.632" gradientTransform="matrix(1 0 0 -1 178.5 523.5)" gradientUnits="userSpaceOnUse"><stop style="stop-color:#fff" id="stop3966" offset="0"/><stop style="stop-color:#57adff" id="stop3967" offset=".596"/><stop style="stop-color:#c9e6ff" id="stop3968" offset=".994"/></radialGradient><linearGradient id="XMLID_17_" x1="-52.197" x2="-52.197" y1="434.407" y2="332.806" gradientTransform="matrix(1 0 0 -1 178.5 523.5)" gradientUnits="userSpaceOnUse"><stop style="stop-color:#06c" id="stop3976" offset="0"/><stop style="stop-color:#036" id="stop3977" offset=".2"/><stop style="stop-color:#428aff" id="stop3978" offset="1"/></linearGradient><linearGradient id="XMLID_18_" x1="-52.251" x2="-52.251" y1="457.03" y2="361.422" gradientTransform="matrix(1 0 0 -1 178.5 523.5)" gradientUnits="userSpaceOnUse"><stop style="stop-color:#fff" id="stop3986" offset="0"/><stop style="stop-color:#94caff" id="stop3987" offset="1"/></linearGradient></defs><metadata id="metadata3933"><x:xmpmeta x:xmptk="XMP toolkit 3.0-29, framework 1.6"/><x:xmpmeta x:xmptk="XMP toolkit 3.0-29, framework 1.6"/><xpacket>begin=&apos; &apos; id=&apos;W5M0MpCehiHzreSzNTczkc9d&apos;</xpacket><x:xmpmeta x:xmptk="XMP toolkit 3.0-29, framework 1.6"/><xpacket>end=&apos;w&apos;</xpacket></metadata><rect id="_x3C_Slice_x3E_" width="256" height="256" fill="none" style="font-size:12;fill:none"/><path id="path3954" d="M82.641,82.92c-12.338,12.307-19.132,28.577-19.132,45.816 c0,35.893,29.156,65.092,64.993,65.092c35.842,0,65-29.199,65-65.092c0-35.777-29.158-64.884-65-64.884 C111.255,63.854,94.967,70.625,82.641,82.92z" enable-background="new" opacity=".2" transform="matrix(1.680000,0.000000,0.000000,1.680000,-86.70000,-86.69968)" style="font-size:12;opacity:.2"/><path id="path3955" d="M81.971,81.581c-12.338,12.306-19.133,28.576-19.133,45.816 c0,35.892,29.157,65.093,64.994,65.093c35.842,0,65-29.201,65-65.093c0-35.777-29.158-64.886-65-64.886 C110.584,62.514,94.297,69.286,81.971,81.581z" enable-background="new" opacity=".2" transform="matrix(1.680000,0.000000,0.000000,1.680000,-86.70000,-86.69968)" style="font-size:12;opacity:.2"/><path id="path3962" fill="url(#XMLID_15_)" d="M80.63,80.241c-12.337,12.305-19.132,28.576-19.132,45.816c0,35.892,29.156,65.091,64.994,65.091 c35.842,0,64.999-29.199,64.999-65.091c0-35.777-29.157-64.886-64.999-64.886C109.244,61.173,92.957,67.944,80.63,80.241z" transform="matrix(1.680000,0.000000,0.000000,1.680000,-86.70000,-86.69968)" style="font-size:12;fill:url(#XMLID_15_)"/><path id="path3963" fill="#B0D9FF" d="M82.523,82.139c-11.83,11.799-18.347,27.396-18.347,43.918c0,34.414,27.955,62.412,62.314,62.412 c34.362,0,62.319-27.998,62.319-62.412c0-34.299-27.957-62.205-62.319-62.205C109.96,63.854,94.344,70.348,82.523,82.139z" transform="matrix(1.680000,0.000000,0.000000,1.680000,-86.70000,-86.69968)" style="font-size:12;fill:#b0d9ff"/><path id="path3964" fill="#FFF" d="M126.492,186.459c33.297,0,60.31-27.125,60.31-60.402c0-33.064-27.011-60.193-60.31-60.193 c-33.061,0.001-60.303,27.129-60.303,60.193C66.189,159.334,93.432,186.459,126.492,186.459z" transform="matrix(1.680000,0.000000,0.000000,1.680000,-86.70000,-86.69968)" style="font-size:12;fill:#fff"/><path id="path3974" fill="url(#XMLID_16_)" d="M126.492,186.459c33.297,0,60.31-27.125,60.31-60.402c0-33.064-27.011-60.193-60.31-60.193 c-33.061,0.001-60.303,27.129-60.303,60.193C66.189,159.334,93.432,186.459,126.492,186.459z" transform="matrix(1.680000,0.000000,0.000000,1.680000,-86.70000,-86.69968)" style="font-size:12;fill:url(#XMLID_16_)"/><path id="path3984" fill="url(#XMLID_17_)" d="M106.461,72.497c-0.298,0-0.625,0.123-0.959,0.313C106.287,72.579,106.656,72.497,106.461,72.497 M125.878,76.285l0.195-2.841l-2.997,0.188l0.396,2.652L125.878,76.285 M92.049,125.375c-0.604-0.569-0.199-3.035-0.199-3.035 s-9.01-4.735-18.817-7.58c-1.209-0.351-0.599-2.841,0.598-3.786l-0.397-2.66c-0.199-1.322,2.004-7.767,4.205-8.332 c2.203-0.571-0.201,3.787-0.201,3.787l-2.2,1.327c0,0,2.601,3.03,3.204,3.03c0.599,0,1.6-1.518,1.6-1.518l-2.801-1.89 l2.602-1.141l0.164-0.998l0.437-0.14l4.309-6.525c2.978-1.219,6.638-2.729,7.103-2.95c0.802-0.377,6.404-3.597,7.406-4.354 c1.004-0.762,3.201-0.568,4-0.568c0.805,0,2.004-0.381,2.203-2.469c0.2-2.084,1.002-2.463,1.604-1.893 c0.602,0.563-0.602,1.514,0.801,1.893c1.4,0.381,2.6,1.328,3.604,0.381c0.731-0.693-0.248-1.484-0.908-2.081h11.115l1.203-3.417 l-2.602-0.379l-9.613-0.945v-1.139l-0.766,0.129c1.041-5.717,7.221-4.775,2.568-8.084c-0.283-0.204-4.354,6.413-5.39,6.285 c-1.877-0.248-4.301-0.268-4.817,0.342c-0.684,0.807,1.535-2.771,3.444-3.855c-3.049,0.898-12.68,4.193-22.86,15.039 c-9.734,10.368-13.615,24.338-13.615,24.826c0,0.947,2.004,1.327,2.203,2.467c0.201,1.131-3.803,4.926-3.803,6.82 c0,0.872-0.943,12.554,2.398,22.175c3.906,11.23,12.244,20.609,13.214,21.227l2-0.949c0,0-4.604-8.148-4.803-8.908 c-0.198-0.756,5.204-11.75,7.809-11.367c2.601,0.371,2.002,1.137,3.603,0.188c1.602-0.945,2.602-8.721,4.404-9.475 c1.803-0.762,3.803-1.707,3.604-3.602C99.453,129.35,92.648,125.942,92.049,125.375 M135.486,69.653l-5.404-1.896l1.002,3.035 L135.486,69.653 M115.268,76.665c0.603,0,12.611-7.956,11.41-8.148c-1.197-0.188-1.398,0-4.607-0.379 c-3.198-0.379-6.604,4.549-7.403,5.309C113.867,74.206,114.137,76.665,115.268,76.665 M170.381,133.811l1.551-2.012l-1.551-0.545 l-1.162,1.461l-1.354,2.006l1.161,0.549L170.381,133.811 M177.16,140.391l-0.389-2.926h-2.515l-0.194,2.191l-2.328-0.361 l-0.578-2.379l-1.161-0.73l-1.359,1.643l-1.353-0.363l-0.391,1.275l1.553,0.371v11.869l5.481,1.32 c-0.126,0.219-0.221,0.402-0.252,0.502c-0.392,1.281,1.548,1.834,2.9,1.281c0.506-0.201,2.101-1.814,3.103-4.197 c1.396-3.32,2.614-7.703,2.86-9.252l0.627-1.342l-3.875,1.461l-2.134-0.363H177.16 M185.299,118.286l-1.012-1.959 c-1.199-6.758-3.946-15.406-9.834-24.344c-8.863-13.438-33.523-21.188-33.523-21.188l-1.354,1.641l-0.777-1.274l-1.938-0.733 v1.646l1.746,1.463l-1.162,0.547l-4.459,0.362l-10.073,5.482l0.967,4.383l-1.165,0.367l-0.576,0.912l3.293,4.928l0.193,1.648 l-2.712,0.547V96l-1.549,0.364l0.194,2.559l-13.177,9.139l0.388,5.107c0.967,1.281,8.525,8.954,8.525,8.954 s8.717,0.36,10.654-0.731c1.938-1.095,0.58,1.096,1.164,1.645c0.578,0.551,0.773,4.383,1.353,4.75 c0.581,0.363,0,2.554,0.775,3.289c0.774,0.725,0.774,9.498,0.774,9.498s4.65,7.85,4.65,9.861c0,2.01-0.195,1.826,3.488,1.645 c3.682-0.182,4.455-1.645,5.228-2.189c0.778-0.549,0.778-1.828,1.554-2.926c0.777-1.098,2.129-5.295,3.877-6.756 c1.74-1.465,6.392-2.563,6.776-5.115c0.388-2.559,2.132-4.568,2.132-4.568l8.377-8.86l-0.236,1.19l-0.194,4.563l2.521-0.911 l-0.192-4.935l-0.905-0.957l0.129-0.14c0,0-0.582-1.095-1.354-1.095c-0.774,0-5.429,1.095-6.199,0.913 c-0.776-0.184-4.073-8.952-4.653-9.313c-0.582-0.365-4.261-6.396-4.261-6.396s8.522,10.229,9.88,14.246 c0.786,2.341,3.743,0.162,6.149-2.28l0.637,1.553l1.547-0.369l-0.194-1.825h1.744v2.739l-0.58,1.463l-0.199,2.371l1.552,1.466 l0.776-1.277l2.514-2.377l2.908-1.462l0.777,1.462l0.389,2.011l-0.778,2.19l-1.549,1.278l-0.774,3.289v1.641l-1.742-1.096 l-0.192-3.468l-2.519,0.186l-1.162,3.101l1.744,2.563l4.066,0.547l3.295-3.109l0.387-6.02l1.465-1.937 c0.955,2.454,1.637,5.022,1.637,7.414c0,2.623,1.199-1.816,0.179-9.814L185.299,118.286 M136.473,99.655l-10.461-0.371 l4.454-3.65h2.325l3.682,2.555V99.655 M149.264,98.376v1.644h-4.455l0.387,1.099l-2.715,0.368l-0.19,0.908l-1.938-0.36 l-3.49-0.735l0.584-0.91l0.582-1.101l1.937-2.008l0.777,1.463l2.905-0.185l1.549-1.645l6.005,1.096L149.264,98.376 M149.646,96 l-2.322,0.364l-0.387-1.646l2.903-0.363l0.39-1.643l2.135,2.194l-2.719,1.091V96 M160.887,152.803l-1.357,1.098l0.193,2.742 h1.744v-2.371l1.553-2.014v-4.199l-0.971-0.188l-1.16,4.932H160.887 M147.908,147.33c0,0-1.357,0.354,0.191,0.908 c1.547,0.553,7.75-8.943,7.75-8.943l-5.232,3.283l-2.711,4.752H147.908 M137.361,182.338l-1.158-1.105l-2.326-0.369l-0.385,1.105 l-3.1-0.365l-0.194-1.471h-2.324l-2.517,1.471h-4.453l-0.387-1.104l-7.164-0.74l-1.164,1.105l-2.9-0.73l-0.389-2.58l-1.355-0.188 l-1.55,2.768l-5.228-0.186c0.936,0.441,8.741,5.1,20.715,6.07c15.879,1.285,23.432-2.574,23.432-2.574l-0.582-0.555l-6.971-0.551 V182.338L137.361,182.338z" transform="matrix(1.680000,0.000000,0.000000,1.680000,-86.70000,-86.69968)" style="font-size:12;fill:url(#XMLID_17_)"/><path id="path3991" fill="url(#XMLID_18_)" d="M126.289,113.975c20.656,0,38.626-7.117,47.871-17.608 C164.85,78.598,146.861,66.47,126.2,66.47c-20.481,0.001-38.493,12.087-47.862,29.806 C87.559,106.815,105.572,113.975,126.289,113.975z" enable-background="new" transform="matrix(1.680000,0.000000,0.000000,1.680000,-86.70000,-86.69968)" style="font-size:12;fill:url(#XMLID_18_)"/><g id="g3992" transform="matrix(1.680000,0.000000,0.000000,1.680000,-86.70000,-86.69968)" style="font-size:12"><linearGradient id="XMLID_19_" x1="141.272" x2="141.272" y1="70.428" y2="158.071" gradientUnits="userSpaceOnUse"><stop style="stop-color:#fff" id="stop3994" offset="0"/><stop style="stop-color:#039" id="stop3995" offset=".994"/></linearGradient><path id="path3999" fill="url(#XMLID_19_)" d="M152.751,104.585c0,0,1.402,1.683,3.159,3.951 c7.592-3.053,13.896-7.23,18.25-12.17c-3.086-5.89-7.131-11.155-11.905-15.569c-10.045-6.453-21.325-10.002-21.325-10.002 l-1.354,1.641l-0.777-1.274l-1.938-0.733v1.646l1.746,1.463l-1.162,0.547l-4.459,0.362l-10.073,5.482l0.967,4.383l-1.165,0.367 l-0.576,0.912l3.293,4.928l0.193,1.648l-2.712,0.547V96l-1.549,0.364l0.194,2.559l-13.177,9.139l0.312,4.101 c5.522,1.167,11.435,1.813,17.596,1.813c10.702,0,20.669-1.923,29.089-5.223C154.165,106.903,152.751,104.585,152.751,104.585z M136.473,99.655l-10.461-0.371l4.454-3.65h2.325l3.682,2.555V99.655z M149.264,98.376v1.644h-4.455l0.387,1.099l-2.715,0.368 l-0.19,0.908l-1.938-0.36l-3.49-0.735l0.584-0.91l0.582-1.101l1.937-2.008l0.777,1.463l2.905-0.185l1.549-1.645l6.005,1.096 L149.264,98.376z M149.646,95.997V96l-2.322,0.364l-0.387-1.646l2.903-0.363l0.39-1.643l2.135,2.194L149.646,95.997z" enable-background="new"/><linearGradient id="XMLID_20_" x1="100.509" x2="100.509" y1="70.033" y2="130.029" gradientUnits="userSpaceOnUse"><stop style="stop-color:#fff" id="stop4001" offset="0"/><stop style="stop-color:#039" id="stop4002" offset=".994"/></linearGradient><path id="path4006" fill="url(#XMLID_20_)" d="M91.652,92.964c0.802-0.377,6.404-3.597,7.406-4.354 c1.004-0.762,3.201-0.568,4-0.568c0.805,0,2.004-0.381,2.203-2.469c0.2-2.084,1.002-2.463,1.604-1.893 c0.602,0.563-0.602,1.514,0.801,1.893c1.4,0.381,2.6,1.328,3.604,0.381c0.731-0.693-0.248-1.484-0.908-2.081h11.115l1.203-3.417 l-2.602-0.379l-9.613-0.945v-1.139l-0.766,0.129c1.041-5.717,7.221-4.775,2.568-8.084c-0.283-0.204-4.354,6.413-5.39,6.285 c-1.877-0.248-4.301-0.268-4.817,0.342c-0.684,0.807,1.535-2.771,3.444-3.855c-2.373,0.699-8.736,2.868-16.238,8.898 c-4.341,4.198-8.045,9.115-10.929,14.568c1.084,1.239,2.3,2.427,3.618,3.567l2.594-3.929 C87.527,94.696,91.188,93.186,91.652,92.964z" enable-background="new"/><linearGradient id="XMLID_21_" x1="124.575" x2="124.575" y1="73.444" y2="79.161" gradientUnits="userSpaceOnUse"><stop style="stop-color:#fff" id="stop4008" offset="0"/><stop style="stop-color:#039" id="stop4009" offset=".994"/></linearGradient><polygon id="polygon4013" fill="url(#XMLID_21_)" points="126.073 73.444 123.076 73.631 123.473 76.284 125.878 76.284 125.878 76.285" enable-background="new"/><linearGradient id="XMLID_22_" x1="106.007" x2="106.007" y1="72.497" y2="73.126" gradientUnits="userSpaceOnUse"><stop style="stop-color:#fff" id="stop4015" offset="0"/><stop style="stop-color:#039" id="stop4016" offset=".994"/></linearGradient><path id="path4020" fill="url(#XMLID_22_)" d="M106.461,72.497c-0.298,0-0.625,0.123-0.959,0.313 C106.287,72.579,106.656,72.497,106.461,72.497z" enable-background="new"/><linearGradient id="XMLID_23_" x1="120.485" x2="120.485" y1="68.117" y2="85.32" gradientUnits="userSpaceOnUse"><stop style="stop-color:#fff" id="stop4022" offset="0"/><stop style="stop-color:#039" id="stop4023" offset=".994"/></linearGradient><path id="path4027" fill="url(#XMLID_23_)" d="M114.667,73.446c-0.8,0.76-0.53,3.219,0.601,3.219 c0.603,0,12.611-7.956,11.41-8.148c-1.197-0.188-1.398,0-4.607-0.379C118.872,67.758,115.466,72.686,114.667,73.446z" enable-background="new"/><linearGradient id="XMLID_24_" x1="132.784" x2="132.784" y1="67.756" y2="73.865" gradientUnits="userSpaceOnUse"><stop style="stop-color:#fff" id="stop4029" offset="0"/><stop style="stop-color:#039" id="stop4030" offset=".994"/></linearGradient><polygon id="polygon4034" fill="url(#XMLID_24_)" points="135.486 69.653 130.082 67.756 131.084 70.792" enable-background="new"/></g></svg>