<svg xmlns="http://www.w3.org/2000/svg" xmlns:svg="http://www.w3.org/2000/svg" id="svg2" width="744.094" height="1052.362" version="1.1"><defs id="defs4"><marker id="TriangleOutM" orient="auto" refX="0" refY="0" style="overflow:visible"><path id="path4386" d="M 5.77,0.0 L -2.88,5.0 L -2.88,-5.0 L 5.77,0.0 z" transform="scale(0.4)" style="fill-rule:evenodd;stroke:#000;stroke-width:1pt;marker-start:none"/></marker><marker id="TriangleOutL" orient="auto" refX="0" refY="0" style="overflow:visible"><path id="path4383" d="M 5.77,0.0 L -2.88,5.0 L -2.88,-5.0 L 5.77,0.0 z" transform="scale(0.8)" style="fill-rule:evenodd;stroke:#000;stroke-width:1pt;marker-start:none"/></marker><marker id="Arrow2Lend" orient="auto" refX="0" refY="0" style="overflow:visible"><path id="path4261" d="M 8.7185878,4.0337352 L -2.2072895,0.016013256 L 8.7185884,-4.0017078 C 6.9730900,-1.6296469 6.9831476,1.6157441 8.7185878,4.0337352 z" transform="scale(1.1) rotate(180) translate(1,0)" style="font-size:12;fill-rule:evenodd;stroke-width:.625;stroke-linejoin:round"/></marker><marker id="Arrow2Lend-7" orient="auto" refX="0" refY="0" style="overflow:visible"><path id="path4261-5" d="M 8.7185878,4.0337352 -2.2072895,0.01601326 8.7185884,-4.0017078 c -1.7454984,2.3720609 -1.7354408,5.6174519 -6e-7,8.035443 z" transform="matrix(-1.1,0,0,-1.1,-1.1,0)" style="font-size:12px;fill-rule:evenodd;stroke-width:.625;stroke-linejoin:round"/></marker></defs><metadata id="metadata7"/><g id="capa1"><rect style="fill:#fff;fill-opacity:1;stroke:#302f2d;stroke-width:1;stroke-linecap:square;stroke-linejoin:miter;stroke-miterlimit:4;stroke-opacity:1;stroke-dasharray:none;stroke-dashoffset:0" id="rect2985-7" width="334.747" height="320" x="142.857" y="289.505"/><rect style="fill:#4fc2a3;fill-opacity:1;stroke:#302f2d;stroke-width:1;stroke-linecap:square;stroke-linejoin:miter;stroke-miterlimit:4;stroke-opacity:1;stroke-dasharray:none;stroke-dashoffset:0" id="rect2985" width="280" height="320" x="142.857" y="289.505"/><text style="font-size:24px;font-style:normal;font-variant:normal;font-weight:400;font-stretch:normal;line-height:125%;letter-spacing:0;word-spacing:0;fill:#000;fill-opacity:1;stroke:none;font-family:Liberation Sans;-inkscape-font-specification:Liberation Sans" id="text3773" x="342.857" y="366.501" xml:space="preserve"><tspan id="tspan3775" x="342.857" y="366.501" style="font-style:normal;font-variant:normal;font-weight:700;font-stretch:normal;font-family:FreeMono;-inkscape-font-specification:FreeMono Bold">+</tspan></text><g id="g3869" transform="translate(0.582401,-5.8608146)"><path id="path3777" d="m 366.26871,403.16354 c 0,5.24356 -4.25074,9.4943 -9.4943,9.4943 -5.24355,0 -9.49429,-4.25074 -9.49429,-9.4943 0,-5.24355 4.25074,-9.49429 9.49429,-9.49429 5.24356,0 9.4943,4.25074 9.4943,9.49429 z" transform="matrix(1.0398982,0,0,1.0398982,-20.7335,-17.259958)" style="fill:#409c83;fill-opacity:1;stroke:#1d190a;stroke-width:1.92326522;stroke-linecap:square;stroke-linejoin:miter;stroke-miterlimit:4;stroke-opacity:1;stroke-dasharray:none;stroke-dashoffset:0"/><path id="path3777-4" d="m 366.26871,403.16354 c 0,5.24356 -4.25074,9.4943 -9.4943,9.4943 -5.24355,0 -9.49429,-4.25074 -9.49429,-9.4943 0,-5.24355 4.25074,-9.49429 9.49429,-9.49429 5.24356,0 9.4943,4.25074 9.4943,9.49429 z" transform="matrix(1.0398982,0,0,1.0398982,10.087987,-17.259958)" style="fill:#409c83;fill-opacity:1;stroke:#1d190a;stroke-width:1.92326522;stroke-linecap:square;stroke-linejoin:miter;stroke-miterlimit:4;stroke-opacity:1;stroke-dasharray:none;stroke-dashoffset:0"/></g><g id="g3865" transform="translate(1.687874,-4.5790582)"><path id="path3777-9" d="m 366.26871,403.16354 c 0,5.24356 -4.25074,9.4943 -9.4943,9.4943 -5.24355,0 -9.49429,-4.25074 -9.49429,-9.4943 0,-5.24355 4.25074,-9.49429 9.49429,-9.49429 5.24356,0 9.4943,4.25074 9.4943,9.49429 z" transform="matrix(1.0398982,0,0,1.0398982,-21.838973,16.195102)" style="fill:#409c83;fill-opacity:1;stroke:#1d190a;stroke-width:1.92326522;stroke-linecap:square;stroke-linejoin:miter;stroke-miterlimit:4;stroke-opacity:1;stroke-dasharray:none;stroke-dashoffset:0"/><path id="path3777-4-1" d="m 366.26871,403.16354 c 0,5.24356 -4.25074,9.4943 -9.4943,9.4943 -5.24355,0 -9.49429,-4.25074 -9.49429,-9.4943 0,-5.24355 4.25074,-9.49429 9.49429,-9.49429 5.24356,0 9.4943,4.25074 9.4943,9.49429 z" transform="matrix(1.0398982,0,0,1.0398982,8.9825068,16.195102)" style="fill:#409c83;fill-opacity:1;stroke:#1d190a;stroke-width:1.92326522;stroke-linecap:square;stroke-linejoin:miter;stroke-miterlimit:4;stroke-opacity:1;stroke-dasharray:none;stroke-dashoffset:0"/></g><g id="g3861" transform="translate(5.90756,-3.5997268)"><path id="path3777-42" d="m 366.26871,403.16354 c 0,5.24356 -4.25074,9.4943 -9.4943,9.4943 -5.24355,0 -9.49429,-4.25074 -9.49429,-9.4943 0,-5.24355 4.25074,-9.49429 9.49429,-9.49429 5.24356,0 9.4943,4.25074 9.4943,9.49429 z" transform="matrix(1.0398982,0,0,1.0398982,-26.058659,49.952587)" style="fill:#409c83;fill-opacity:1;stroke:#1d190a;stroke-width:1.92326522;stroke-linecap:square;stroke-linejoin:miter;stroke-miterlimit:4;stroke-opacity:1;stroke-dasharray:none;stroke-dashoffset:0"/><path id="path3777-4-2" d="m 366.26871,403.16354 c 0,5.24356 -4.25074,9.4943 -9.4943,9.4943 -5.24355,0 -9.49429,-4.25074 -9.49429,-9.4943 0,-5.24355 4.25074,-9.49429 9.49429,-9.49429 5.24356,0 9.4943,4.25074 9.4943,9.49429 z" transform="matrix(1.0398982,0,0,1.0398982,4.7628209,49.952587)" style="fill:#409c83;fill-opacity:1;stroke:#1d190a;stroke-width:1.92326522;stroke-linecap:square;stroke-linejoin:miter;stroke-miterlimit:4;stroke-opacity:1;stroke-dasharray:none;stroke-dashoffset:0"/></g><g id="g3873" transform="translate(3.375749,-11.059766)"><path id="path3777-6" d="m 366.26871,403.16354 c 0,5.24356 -4.25074,9.4943 -9.4943,9.4943 -5.24355,0 -9.49429,-4.25074 -9.49429,-9.4943 0,-5.24355 4.25074,-9.49429 9.49429,-9.49429 5.24356,0 9.4943,4.25074 9.4943,9.49429 z" transform="matrix(1.0398982,0,0,1.0398982,-23.526848,92.149443)" style="fill:#409c83;fill-opacity:1;stroke:#1d190a;stroke-width:1.92326522;stroke-linecap:square;stroke-linejoin:miter;stroke-miterlimit:4;stroke-opacity:1;stroke-dasharray:none;stroke-dashoffset:0"/><path id="path3777-4-8" d="m 366.26871,403.16354 c 0,5.24356 -4.25074,9.4943 -9.4943,9.4943 -5.24355,0 -9.49429,-4.25074 -9.49429,-9.4943 0,-5.24355 4.25074,-9.49429 9.49429,-9.49429 5.24356,0 9.4943,4.25074 9.4943,9.49429 z" transform="matrix(1.0398982,0,0,1.0398982,7.2946324,92.149443)" style="fill:#409c83;fill-opacity:1;stroke:#1d190a;stroke-width:1.92326522;stroke-linecap:square;stroke-linejoin:miter;stroke-miterlimit:4;stroke-opacity:1;stroke-dasharray:none;stroke-dashoffset:0"/></g><g id="g3857" transform="translate(0,-5.8607431)"><path id="path3777-2" d="m 366.26871,403.16354 c 0,5.24356 -4.25074,9.4943 -9.4943,9.4943 -5.24355,0 -9.49429,-4.25074 -9.49429,-9.4943 0,-5.24355 4.25074,-9.49429 9.49429,-9.49429 5.24356,0 9.4943,4.25074 9.4943,9.49429 z" transform="matrix(1.0398982,0,0,1.0398982,-20.151099,121.68724)" style="fill:#409c83;fill-opacity:1;stroke:#1d190a;stroke-width:1.92326522;stroke-linecap:square;stroke-linejoin:miter;stroke-miterlimit:4;stroke-opacity:1;stroke-dasharray:none;stroke-dashoffset:0"/><path id="path3777-4-6" d="m 366.26871,403.16354 c 0,5.24356 -4.25074,9.4943 -9.4943,9.4943 -5.24355,0 -9.49429,-4.25074 -9.49429,-9.4943 0,-5.24355 4.25074,-9.49429 9.49429,-9.49429 5.24356,0 9.4943,4.25074 9.4943,9.49429 z" transform="matrix(1.0398982,0,0,1.0398982,10.670381,121.68724)" style="fill:#409c83;fill-opacity:1;stroke:#1d190a;stroke-width:1.92326522;stroke-linecap:square;stroke-linejoin:miter;stroke-miterlimit:4;stroke-opacity:1;stroke-dasharray:none;stroke-dashoffset:0"/></g><text style="font-size:24px;font-style:normal;font-variant:normal;font-weight:400;font-stretch:normal;line-height:125%;letter-spacing:0;word-spacing:0;fill:#000;fill-opacity:1;stroke:none;font-family:Liberation Sans;-inkscape-font-specification:Liberation Sans" id="text3773-3" x="373.904" y="366.441" xml:space="preserve"><tspan id="tspan3775-2" x="373.904" y="366.441" style="font-style:normal;font-variant:normal;font-weight:700;font-stretch:normal;font-family:FreeMono;-inkscape-font-specification:FreeMono Bold">-</tspan></text><text style="font-size:24px;font-style:normal;font-variant:normal;font-weight:400;font-stretch:normal;line-height:125%;letter-spacing:0;word-spacing:0;fill:#000;fill-opacity:1;stroke:none;font-family:Liberation Sans;-inkscape-font-specification:Liberation Sans" id="text3773-5" x="315.097" y="542.732" xml:space="preserve"><tspan id="tspan3775-1" x="315.097" y="542.732" style="font-style:normal;font-variant:normal;font-weight:700;font-stretch:normal;font-family:FreeMono;-inkscape-font-specification:FreeMono Bold">1</tspan></text><text style="font-size:24px;font-style:normal;font-variant:normal;font-weight:400;font-stretch:normal;line-height:125%;letter-spacing:0;word-spacing:0;fill:#000;fill-opacity:1;stroke:none;font-family:Liberation Sans;-inkscape-font-specification:Liberation Sans" id="text3773-5-7" x="402.093" y="403.784" xml:space="preserve"><tspan id="tspan3775-1-2" x="402.093" y="403.784" style="font-style:normal;font-variant:normal;font-weight:700;font-stretch:normal;font-family:FreeMono;-inkscape-font-specification:FreeMono Bold">2</tspan></text><text style="font-size:24px;font-style:normal;font-variant:normal;font-weight:400;font-stretch:normal;line-height:125%;letter-spacing:0;word-spacing:0;fill:#000;fill-opacity:1;stroke:none;font-family:Liberation Sans;-inkscape-font-specification:Liberation Sans" id="text3773-5-7-5" x="401.805" y="542.552" xml:space="preserve"><tspan id="tspan3775-1-2-8" x="401.805" y="542.552" style="font-style:normal;font-variant:normal;font-weight:700;font-stretch:normal;font-family:FreeMono;-inkscape-font-specification:FreeMono Bold">3</tspan></text><text style="font-size:24px;font-style:normal;font-variant:normal;font-weight:400;font-stretch:normal;line-height:125%;letter-spacing:0;word-spacing:0;fill:#000;fill-opacity:1;stroke:none;font-family:Liberation Sans;-inkscape-font-specification:Liberation Sans" id="text3773-5-7-2" x="401.589" y="507.803" xml:space="preserve"><tspan id="tspan3775-1-2-7" x="401.589" y="507.803" style="font-style:normal;font-variant:normal;font-weight:700;font-stretch:normal;font-family:FreeMono;-inkscape-font-specification:FreeMono Bold">4</tspan></text><text style="font-size:24px;font-style:normal;font-variant:normal;font-weight:400;font-stretch:normal;line-height:125%;letter-spacing:0;word-spacing:0;fill:#000;fill-opacity:1;stroke:none;font-family:Liberation Sans;-inkscape-font-specification:Liberation Sans" id="text3773-5-7-27" x="401.805" y="472.886" xml:space="preserve"><tspan id="tspan3775-1-2-85" x="401.805" y="472.886" style="font-style:normal;font-variant:normal;font-weight:700;font-stretch:normal;font-family:FreeMono;-inkscape-font-specification:FreeMono Bold">5</tspan></text><text style="font-size:24px;font-style:normal;font-variant:normal;font-weight:400;font-stretch:normal;line-height:125%;letter-spacing:0;word-spacing:0;fill:#000;fill-opacity:1;stroke:none;font-family:Liberation Sans;-inkscape-font-specification:Liberation Sans" id="text3773-5-7-21" x="400.869" y="438.341" xml:space="preserve"><tspan id="tspan3775-1-2-89" x="400.869" y="438.341" style="font-style:normal;font-variant:normal;font-weight:700;font-stretch:normal;font-family:FreeMono;-inkscape-font-specification:FreeMono Bold">6</tspan></text><text style="font-size:24px;font-style:normal;font-variant:normal;font-weight:400;font-stretch:normal;line-height:125%;letter-spacing:0;word-spacing:0;fill:#000;fill-opacity:1;stroke:none;font-family:Liberation Sans;-inkscape-font-specification:Liberation Sans" id="text3773-5-7-1" x="-329.305" y="-388.676" transform="scale(-1,-1)" xml:space="preserve"><tspan id="tspan3775-1-2-1" x="-329.305" y="-388.676" style="font-style:normal;font-variant:normal;font-weight:700;font-stretch:normal;font-family:FreeMono;-inkscape-font-specification:FreeMono Bold">7</tspan></text><text style="font-size:24px;font-style:normal;font-variant:normal;font-weight:400;font-stretch:normal;line-height:125%;letter-spacing:0;word-spacing:0;fill:#000;fill-opacity:1;stroke:none;font-family:Liberation Sans;-inkscape-font-specification:Liberation Sans" id="text3773-5-7-0" x="-330.049" y="-458.126" transform="scale(-1,-1)" xml:space="preserve"><tspan id="tspan3775-1-2-4" x="-330.049" y="-458.126" style="font-style:normal;font-variant:normal;font-weight:700;font-stretch:normal;font-family:FreeMono;-inkscape-font-specification:FreeMono Bold">9</tspan></text><text style="font-size:24px;font-style:normal;font-variant:normal;font-weight:400;font-stretch:normal;line-height:125%;letter-spacing:0;word-spacing:0;fill:#000;fill-opacity:1;stroke:none;font-family:Liberation Sans;-inkscape-font-specification:Liberation Sans" id="text3773-5-7-20" x="-329.497" y="-492.863" transform="scale(-1,-1)" xml:space="preserve"><tspan id="tspan3775-1-2-9" x="-329.497" y="-492.863" style="font-style:normal;font-variant:normal;font-weight:700;font-stretch:normal;font-family:FreeMono;-inkscape-font-specification:FreeMono Bold">10</tspan></text><text style="font-size:24px;font-style:normal;font-variant:normal;font-weight:400;font-stretch:normal;line-height:125%;letter-spacing:0;word-spacing:0;fill:#000;fill-opacity:1;stroke:none;font-family:Liberation Sans;-inkscape-font-specification:Liberation Sans" id="text3773-5-7-52" x="-329.497" y="-423.389" transform="scale(-1,-1)" xml:space="preserve"><tspan id="tspan3775-1-2-856" x="-329.497" y="-423.389" style="font-style:normal;font-variant:normal;font-weight:700;font-stretch:normal;font-family:FreeMono;-inkscape-font-specification:FreeMono Bold">8</tspan></text><path style="fill:none;stroke:#000;stroke-width:3;stroke-linecap:butt;stroke-linejoin:miter;stroke-miterlimit:4;stroke-opacity:1;stroke-dasharray:none;marker-end:url(#TriangleOutL)" id="path4235" d="m 447.92066,545.73278 0,-111.7449"/><path style="fill:none;stroke:#000;stroke-width:3;stroke-linecap:butt;stroke-linejoin:miter;stroke-miterlimit:4;stroke-opacity:1;stroke-dasharray:none;marker-end:url(#TriangleOutL)" id="path4235-9" d="m 277.34575,385.06146 0,113.44257"/></g></svg>