<svg xmlns="http://www.w3.org/2000/svg" xmlns:pdf="http://ns.adobe.com/pdf/1.3/" xmlns:x="adobe:ns:meta/" xmlns:xap="http://ns.adobe.com/xap/1.0/" xmlns:xapGImg="http://ns.adobe.com/xap/1.0/g/img/" xmlns:xapMM="http://ns.adobe.com/xap/1.0/mm/" xmlns:xlink="http://www.w3.org/1999/xlink" style="overflow:visible;enable-background:new 0 0 48 48" id="svg548" width="64" height="64" viewBox="0 0 48 48" xml:space="preserve"><defs id="defs600"><linearGradient id="XMLID_6_" x1="24" x2="24" y1="43.645" y2="1.83" gradientUnits="userSpaceOnUse"><stop style="stop-color:#824f26" id="stop555" offset=".006"/><stop style="stop-color:#c77700" id="stop556" offset="1"/></linearGradient><linearGradient id="XMLID_7_" x1="23.92" x2="23.92" y1="29.357" y2="2.921" gradientUnits="userSpaceOnUse"><stop style="stop-color:#ffae00" id="stop567" offset="0"/><stop style="stop-color:#ffffde" id="stop568" offset="1"/></linearGradient><linearGradient id="XMLID_8_" x1="24.042" x2="8.855" y1="18.899" y2="32.399" gradientUnits="userSpaceOnUse"><stop style="stop-color:#ffae00" id="stop574" offset="0"/><stop style="stop-color:#ffffde" id="stop575" offset="1"/></linearGradient><linearGradient id="XMLID_9_" x1="37.541" x2="25.52" y1="35.867" y2="9.008" gradientUnits="userSpaceOnUse"><stop style="stop-color:#ffffa2" id="stop581" offset=".006"/><stop style="stop-color:#ffae00" id="stop582" offset="1"/></linearGradient><linearGradient id="XMLID_10_" x1="23.871" x2="23.871" y1="11.92" y2="6.671" gradientUnits="userSpaceOnUse"><stop style="stop-color:#ff6d00" id="stop588" offset="0"/><stop style="stop-color:#d3630d" id="stop589" offset=".226"/><stop style="stop-color:#b05a18" id="stop590" offset=".45"/><stop style="stop-color:#975420" id="stop591" offset=".659"/><stop style="stop-color:#875024" id="stop592" offset=".848"/><stop style="stop-color:#824f26" id="stop593" offset="1"/></linearGradient></defs><metadata id="metadata549"><xpacket>begin=&apos; &apos; id=&apos;W5M0MpCehiHzreSzNTczkc9d&apos;</xpacket><x:xmpmeta x:xmptk="XMP toolkit 3.0-29, framework 1.6"/><xpacket>end=&apos;w&apos;</xpacket></metadata><g id="g551" style="font-size:12"><path style="opacity:.2" id="path552" d="M24.6,3.18L4.368,10.664c-0.294,0.109-0.49,0.39-0.49,0.704v26.695c0,0.316,0.198,0.599,0.495,0.706 l0.432,0.156l20.15,7.396c0.163,0.06,0.343,0.061,0.508,0.003l20.032-7.044c0.301-0.105,0.501-0.389,0.501-0.707v-27.51 c0-0.318-0.2-0.602-0.5-0.708l-20.387-7.18C24.945,3.118,24.764,3.119,24.6,3.18z"/></g><path style="font-size:12;opacity:.2" id="path553" d="M24.225,2.805L3.993,10.289c-0.294,0.109-0.49,0.39-0.49,0.704v26.695c0,0.316,0.198,0.599,0.495,0.706 L4.43,38.55l20.15,7.396c0.163,0.06,0.343,0.061,0.508,0.003l20.032-7.044c0.301-0.105,0.501-0.389,0.501-0.707v-27.51 c0-0.318-0.2-0.602-0.5-0.708l-20.386-7.18C24.57,2.743,24.389,2.744,24.225,2.805z"/><path style="font-size:12;fill:url(#XMLID_6_)" id="path560" d="M23.663,2.43L3.431,9.914c-0.294,0.109-0.49,0.39-0.49,0.704v26.695 c0,0.316,0.198,0.599,0.495,0.706l0.432,0.156l20.15,7.396c0.164,0.06,0.343,0.061,0.508,0.003l20.032-7.044 c0.301-0.105,0.501-0.389,0.501-0.707v-27.51c0-0.318-0.2-0.602-0.5-0.708l-20.386-7.18C24.007,2.368,23.827,2.369,23.663,2.43z"/><polygon style="font-size:12;fill:#febf59" id="polygon561" points="23.989 11.065 4.334 11.065 4.334 37.07 4.349 37.07 23.92 44.311 23.989 44.285"/><polygon style="font-size:12;fill:#fff" id="polygon563" points="23.989 11.065 23.989 44.285 23.92 44.311 43.491 37.07 43.666 37.07 43.666 11.065"/><polygon style="font-size:12;fill:#fff" id="polygon564" points="4.334 11.065 23.92 18.311 43.506 11.065 23.92 3.82"/><path style="font-size:12;fill:#fff" id="path565" d="M4.334,11.065 M23.92,18.311L4.334,11.065v25.802h0.015l19.571,7.239l0.069-0.025V18.286L23.92,18.311z"/><path style="font-size:12;fill:url(#XMLID_7_)" id="path572" d="M23.92,3.82L4.609,10.964c3.172,1.173,6.345,2.347,9.518,3.521 c2.17,0.803,4.34,1.605,6.51,2.408c0.884,0.327,2.323,1.214,3.283,1.214c0.831,0,2.078-0.768,2.843-1.051 c2.317-0.857,4.634-1.714,6.95-2.571c3.173-1.173,6.345-2.347,9.518-3.521L23.92,3.82z"/><path style="font-size:12;fill:url(#XMLID_8_)" id="path579" d="M4.334,11.695v25.249h0.015l19.204,7.112c0.004-8.374,0.243-17.074-0.068-25.269 C17.101,16.424,10.717,14.06,4.334,11.695z"/><path style="font-size:12;fill:url(#XMLID_9_)" id="path586" d="M24.441,44.183l19.051-7.023h0.174v-25.19c-2.207,0.768-18.723,6.53-19.097,7.044 C24.177,19.55,24.429,43.107,24.441,44.183z"/><path style="font-size:12;fill:url(#XMLID_10_)" id="path597" d="M24.035,10.982L43.3,10.936L23.941,9.764V3.717c0,0-0.781,5.729-0.984,6 S4.441,10.982,4.441,10.982l18.469-0.281l0.938,7.453L24.035,10.982z"/><polyline id="_x3C_Slice_x3E_" points="0 48 0 0 48 0 48 48" style="font-size:12;fill:none"/></svg>