<svg xmlns="http://www.w3.org/2000/svg" xmlns:pdf="http://ns.adobe.com/pdf/1.3/" xmlns:x="adobe:ns:meta/" xmlns:xap="http://ns.adobe.com/xap/1.0/" xmlns:xapGImg="http://ns.adobe.com/xap/1.0/g/img/" xmlns:xapMM="http://ns.adobe.com/xap/1.0/mm/" xmlns:xlink="http://www.w3.org/1999/xlink" xmlns:xml="http://www.w3.org/XML/1998/namespace" id="svg548" width="64" height="64" viewBox="0 0 48 48" xml:space="preserve" style="overflow:visible;enable-background:new 0 0 48 48"><metadata id="metadata549"><xpacket>begin=&apos; &apos; id=&apos;W5M0MpCehiHzreSzNTczkc9d&apos;</xpacket><x:xmpmeta x:xmptk="XMP toolkit 3.0-29, framework 1.6"/><xpacket>end=&apos;w&apos;</xpacket></metadata><g id="Layer_1"><path style="opacity:.2" id="path551" d="M47.465,24.783c-0.165-0.193-0.417-0.291-0.67-0.257l-6.457,0.861L38.885,14.83 c-0.034-0.247-0.165-0.469-0.363-0.619c-0.198-0.15-0.447-0.216-0.693-0.182c0,0-22.446,3.091-24.169,3.328 c-0.009-0.064-0.029-0.211-0.029-0.211c-0.252-1.833-1.874-3.128-3.615-2.889l-5.581,0.769c-0.813,0.112-1.541,0.542-2.049,1.212 c-0.444,0.586-0.683,1.321-0.683,2.069c0,0.159,0.011,0.318,0.032,0.477l0.325,2.357c0,0,0.008,0.048,0.013,0.072 c0.004,0.032,2.813,20.443,2.813,20.443c0.019,0.136,0.066,0.265,0.14,0.379c1.104,1.719,2.422,3.261,3.917,4.583 c0.205,0.181,0.479,0.264,0.749,0.227l32.045-4.413c0.246-0.034,0.469-0.164,0.618-0.362c0.015-0.019,0.023-0.039,0.036-0.059 c0.188-0.089,0.34-0.249,0.402-0.457l4.818-16.067C47.686,25.241,47.63,24.977,47.465,24.783z"/><path style="opacity:.2" id="path552" d="M47.216,24.408c-0.165-0.194-0.417-0.291-0.67-0.257l-6.458,0.861l-1.453-10.557 c-0.033-0.247-0.164-0.469-0.362-0.619c-0.198-0.15-0.447-0.216-0.693-0.182c0,0-22.446,3.091-24.169,3.328 c-0.009-0.064-0.029-0.211-0.029-0.211c-0.252-1.833-1.874-3.128-3.614-2.889L4.186,14.65c-0.813,0.112-1.541,0.542-2.049,1.212 c-0.444,0.586-0.683,1.321-0.683,2.069c0,0.159,0.011,0.318,0.033,0.477l0.324,2.357c0,0,0.008,0.048,0.013,0.072 C1.828,20.869,4.637,41.28,4.637,41.28c0.019,0.136,0.066,0.265,0.14,0.379c1.104,1.719,2.423,3.261,3.917,4.583 c0.205,0.181,0.479,0.264,0.749,0.227l32.045-4.413c0.246-0.034,0.469-0.164,0.619-0.362c0.014-0.019,0.022-0.039,0.035-0.059 c0.188-0.089,0.34-0.249,0.402-0.457l4.818-16.067C47.437,24.866,47.381,24.602,47.216,24.408z"/><path style="opacity:.2" id="path553" d="M46.841,23.971c-0.165-0.194-0.417-0.291-0.67-0.257l-6.458,0.862L38.26,14.017 c-0.033-0.247-0.164-0.469-0.362-0.62c-0.197-0.15-0.447-0.215-0.693-0.182c0,0-22.446,3.092-24.168,3.329 c-0.009-0.064-0.029-0.211-0.029-0.211c-0.252-1.833-1.874-3.129-3.614-2.889l-5.581,0.769c-0.813,0.112-1.541,0.542-2.049,1.212 c-0.444,0.586-0.683,1.32-0.683,2.069c0,0.159,0.011,0.318,0.033,0.477l0.325,2.357c0,0,0.008,0.048,0.012,0.071 c0.004,0.032,2.814,20.443,2.814,20.443c0.019,0.135,0.066,0.265,0.14,0.38c1.105,1.717,2.423,3.259,3.917,4.582 c0.205,0.182,0.478,0.264,0.749,0.227l32.044-4.414c0.246-0.033,0.469-0.164,0.619-0.361c0.014-0.019,0.023-0.039,0.035-0.059 c0.188-0.089,0.34-0.249,0.402-0.457l4.818-16.068C47.062,24.429,47.007,24.164,46.841,23.971z"/><radialGradient id="XMLID_15_" cx="49.904" cy="47.092" r="30.084" fx="49.904" fy="47.092" gradientTransform="matrix(0.3749 0 0 0.375 14.9959 15)" gradientUnits="userSpaceOnUse"><stop style="stop-color:#85caff" id="stop555" offset="0"/><stop style="stop-color:#003da9" id="stop556" offset="1"/></radialGradient><path style="fill:url(#XMLID_15_)" id="path560" d="M45.797,23.338l-24.382,3.252c-0.393,0.052-0.676,0.4-0.648,0.796l0.98,13.903 c0.029,0.409,0.382,0.72,0.792,0.696l18.582-1.088c0.314-0.02,0.584-0.231,0.675-0.533l4.818-16.068 c0.073-0.244,0.019-0.508-0.147-0.702C46.301,23.401,46.049,23.305,45.797,23.338z"/><linearGradient id="XMLID_16_" x1="33.705" x2="33.705" y1="29.923" y2="40.927" gradientUnits="userSpaceOnUse"><stop style="stop-color:#39f" id="stop562" offset="0"/><stop style="stop-color:#39f" id="stop563" offset="1"/></linearGradient><path style="fill:url(#XMLID_16_)" id="path567" d="M21.515,27.334c0.046,0.652,0.932,13.219,0.98,13.903 c0.702-0.041,18.083-1.059,18.582-1.088c0.142-0.472,4.513-15.044,4.819-16.067C44.812,24.227,22.178,27.245,21.515,27.334z"/><linearGradient id="XMLID_17_" x1="43.617" x2="36.869" y1="24.517" y2="29.578" gradientUnits="userSpaceOnUse"><stop style="stop-color:#39f" id="stop569" offset="0"/><stop style="stop-color:#000" id="stop570" offset="1"/></linearGradient><path style="opacity:.5;fill:url(#XMLID_17_)" id="path574" d="M21.116,27.948c0.066,0.941,0.885,12.556,0.955,13.544 c1.024-0.061,17.535-1.027,18.267-1.07c0.204-0.684,4.256-14.191,4.697-15.663C43.458,24.969,22.085,27.818,21.116,27.948z"/><path style="opacity:.2" id="path575" d="M23.793,1.991c-1.203-0.363-2.477,0.32-2.84,1.523l-7.748,25.673c-0.363,1.203,0.32,2.479,1.523,2.842 l22.586,6.819c1.203,0.363,2.478-0.32,2.841-1.523l7.747-25.674c0.363-1.203-0.32-2.478-1.522-2.841L23.793,1.991z"/><path style="opacity:.2" id="path576" d="M23.418,1.241c-1.203-0.363-2.478,0.32-2.84,1.523L12.83,28.438c-0.363,1.203,0.32,2.479,1.523,2.842 l22.586,6.819c1.203,0.363,2.478-0.32,2.841-1.523l7.747-25.674c0.363-1.203-0.319-2.478-1.522-2.841L23.418,1.241z"/><linearGradient id="XMLID_18_" x1="-12.502" x2="15.653" y1="-47.087" y2="-47.087" gradientTransform="matrix(0.9573 0.289 -0.289 0.9573 14.7332 63.9165)" gradientUnits="userSpaceOnUse"><stop style="stop-color:#888" id="stop578" offset="0"/><stop style="stop-color:#555" id="stop579" offset="1"/></linearGradient><path style="fill:url(#XMLID_18_)" id="path583" d="M23.089,0.866c-1.203-0.363-2.477,0.32-2.84,1.523l-7.748,25.673 c-0.363,1.203,0.32,2.479,1.523,2.842l22.586,6.819c1.203,0.363,2.478-0.32,2.841-1.523l7.748-25.674 c0.362-1.203-0.32-2.478-1.523-2.841L23.089,0.866z"/><path style="fill:#9cf" id="path584" d="M13.143,28.256c-0.256,0.852,0.225,1.749,1.075,2.006l22.587,6.82c0.851,0.256,1.748-0.225,2.005-1.076 l7.747-25.673c0.257-0.851-0.225-1.749-1.074-2.005l-22.587-6.82c-0.851-0.257-1.748,0.225-2.005,1.075L13.143,28.256z"/><linearGradient id="XMLID_19_" x1="-4.256" x2="27.521" y1="-52.919" y2="-21.141" gradientTransform="matrix(0.9573 0.289 -0.289 0.9573 14.7332 63.9165)" gradientUnits="userSpaceOnUse"><stop style="stop-color:#fff" id="stop586" offset="0"/><stop style="stop-color:#9cf" id="stop587" offset="1"/></linearGradient><path style="fill:url(#XMLID_19_)" id="path591" d="M22.702,2.149C22.207,2,21.682,2.281,21.532,2.777L13.785,28.45 c-0.15,0.495,0.132,1.021,0.627,1.17l22.586,6.82c0.495,0.148,1.02-0.132,1.169-0.628l7.749-25.673 c0.148-0.496-0.133-1.021-0.628-1.17L22.702,2.149z"/><path style="opacity:.4;fill:#fff" id="path592" d="M35.193,17.827c3.062-1.518,6.262-1.752,9.514-1.367l1.85-6.127c0.257-0.851-0.225-1.749-1.074-2.005 l-22.587-6.82c-0.851-0.257-1.748,0.225-2.005,1.075l-5.55,18.391C21.559,23.375,28.913,20.764,35.193,17.827z"/><radialGradient id="XMLID_20_" cx="16.352" cy="37.996" r="49.415" fx="16.352" fy="37.996" gradientTransform="matrix(0.3749 0 0 0.375 14.9959 15)" gradientUnits="userSpaceOnUse"><stop style="stop-color:#85caff" id="stop594" offset="0"/><stop style="stop-color:#003da9" id="stop595" offset="1"/></radialGradient><path style="fill:url(#XMLID_20_)" id="path599" d="M36.829,12.841c0,0-22.446,3.092-24.168,3.329c-0.009-0.064-0.029-0.211-0.029-0.211 c-0.252-1.833-1.874-3.129-3.614-2.889l-5.581,0.769C2.623,13.95,1.896,14.38,1.388,15.05c-0.444,0.586-0.684,1.32-0.684,2.069 c0,0.159,0.011,0.318,0.033,0.477l0.325,2.357c0,0,0.008,0.048,0.012,0.071c0.004,0.032,2.814,20.443,2.814,20.443 c0.019,0.135,0.066,0.265,0.14,0.38c1.105,1.717,2.423,3.259,3.917,4.582c0.205,0.182,0.478,0.264,0.749,0.227l32.044-4.414 c0.246-0.033,0.469-0.164,0.619-0.361c0.15-0.198,0.216-0.448,0.182-0.694l-3.654-26.544c-0.033-0.247-0.164-0.469-0.361-0.62 C37.325,12.873,37.075,12.807,36.829,12.841z"/><path style="opacity:.1" id="path600" d="M39.385,14.767c-0.034-0.247-0.164-0.469-0.362-0.62c-0.198-0.15-0.447-0.215-0.693-0.182 c0,0-13.944,1.92-20.694,2.85l-3.85,12.759c-0.15,0.495,0.132,1.021,0.627,1.17l22.586,6.82c0.495,0.148,1.02-0.132,1.169-0.628 l2.933-9.715L39.385,14.767z"/><radialGradient id="XMLID_21_" cx="38.168" cy="18.062" r="90.268" fx="38.168" fy="18.062" gradientTransform="matrix(0.3714 -0.0512 0.0511 0.3715 13.2666 17.0873)" gradientUnits="userSpaceOnUse"><stop style="stop-color:#9cf" id="stop602" offset="0"/><stop style="stop-color:#39f" id="stop603" offset=".5"/><stop style="stop-color:#36f" id="stop604" offset="1"/></radialGradient><path style="fill:url(#XMLID_21_)" id="path610" d="M36.957,13.77L11.86,17.226l-0.157-1.14c-0.182-1.323-1.328-2.258-2.558-2.088 l-5.581,0.769c-1.23,0.169-2.081,1.379-1.898,2.702l0.324,2.357c0.002,0.019,0.007,0.037,0.01,0.056L4.816,40.34 c1.045,1.626,2.311,3.114,3.75,4.388l32.044-4.413L36.957,13.77z"/><linearGradient id="XMLID_22_" x1="9.663" x2="9.663" y1="14.929" y2="11.929" gradientTransform="matrix(0.9907 -0.1364 0.1364 0.9907 -4.6134 5.5667)" gradientUnits="userSpaceOnUse"><stop style="stop-color:#39f" id="stop612" offset="0"/><stop style="stop-color:#3b9dff" id="stop613" offset=".055"/><stop style="stop-color:#64b1ff" id="stop614" offset=".344"/><stop style="stop-color:#81c0ff" id="stop615" offset=".608"/><stop style="stop-color:#93c9ff" id="stop616" offset=".835"/><stop style="stop-color:#9cf" id="stop617" offset="1"/></linearGradient><path style="fill:url(#XMLID_22_)" id="path621" d="M3.641,15.324c-0.921,0.127-1.558,1.055-1.418,2.068l0.325,2.357 c0.139,1.013,1.002,1.734,1.924,1.607l5.581-0.769c0.922-0.126,1.558-1.054,1.418-2.068l-0.324-2.357 c-0.14-1.013-1.003-1.734-1.924-1.608L3.641,15.324z"/><linearGradient id="XMLID_23_" x1="13.461" x2="29.054" y1="13.736" y2="34.062" gradientTransform="matrix(0.9907 -0.1364 0.1364 0.9907 -4.6134 5.5667)" gradientUnits="userSpaceOnUse"><stop style="stop-color:#fff" id="stop623" offset="0"/><stop style="stop-color:#66b3ff" id="stop624" offset="1"/></linearGradient><path style="opacity:.8;fill:url(#XMLID_23_)" id="path628" d="M2.458,19.088c0.11,0.798,2.075,15.077,2.957,21.48 c0.192,0.256,0.39,0.506,0.593,0.752c0.054-3.912,1.658-7.941,4.878-10.158c4.991-3.606,11.106-3.172,16.925-4.885 c4.775-1.506,8.133-5.882,8.843-10.583c-0.098-0.707-0.16-1.165-0.178-1.29C35.415,14.55,3.521,18.942,2.458,19.088z"/><path style="fill:#fff" id="path629" d="M9.196,14.369l-5.581,0.769c-0.922,0.127-1.558,1.055-1.418,2.068l0.103,0.743 c-0.14-1.013,0.497-1.941,1.418-2.068l5.581-0.769c0.921-0.127,1.785,0.594,1.924,1.607l-0.103-0.743 C10.981,14.963,10.118,14.242,9.196,14.369z"/><path style="fill:#fff" id="path630" d="M2.316,18.924l2.939,21.357c0.218,0.297,0.445,0.586,0.68,0.871L3.229,21.486 c-0.161-1.167,0.683-2.248,1.885-2.413l31.121-4.286c0.117-0.016,0.233-0.02,0.349-0.019l-0.076-0.553L2.316,18.924z"/><linearGradient id="XMLID_24_" x1="24.747" x2="49.274" y1="19.907" y2="44.434" gradientUnits="userSpaceOnUse"><stop style="stop-color:#fff" id="stop632" offset="0"/><stop style="stop-color:#9cf" id="stop633" offset="1"/></linearGradient><path style="opacity:.3;fill:url(#XMLID_24_)" id="path637" d="M37.758,12.713l-0.929,0.127c0,0-12.005,1.654-19.129,2.635L13.785,28.45 c-0.15,0.495,0.132,1.021,0.627,1.17l22.586,6.82c0.495,0.148,1.02-0.132,1.169-0.628l1.902-6.303L37.758,12.713z"/><linearGradient id="XMLID_25_" x1="16.371" x2="43.507" y1="14.877" y2="33.664" gradientUnits="userSpaceOnUse"><stop style="stop-color:#39f" id="stop639" offset="0"/><stop style="stop-color:#06c" id="stop640" offset="1"/></linearGradient><path style="opacity:.3;fill:url(#XMLID_25_)" id="path644" d="M37.758,12.713l2.312,16.796l-1.902,6.303 c-0.149,0.496-0.674,0.776-1.169,0.628l-22.586-6.82c-0.495-0.149-0.777-0.675-0.627-1.17L17.7,15.476 c-0.249,0.034-0.494,0.068-0.73,0.101l-3.827,12.68c-0.256,0.852,0.225,1.749,1.075,2.006l22.587,6.82 c0.851,0.256,1.748-0.225,2.005-1.076l1.479-4.902L37.758,12.713z M36.413,12.898c0.053-0.007,0.099-0.014,0.142-0.02 C36.512,12.885,36.466,12.891,36.413,12.898z M34.334,13.185c0.08-0.011,0.159-0.021,0.236-0.032 C34.493,13.163,34.414,13.173,34.334,13.185z"/><path style="opacity:.1;fill:url(#XMLID_25_)" id="path645" d="M37.758,12.713l2.312,16.796l-1.902,6.303 c-0.149,0.496-0.674,0.776-1.169,0.628l-22.586-6.82c-0.495-0.149-0.777-0.675-0.627-1.17L17.7,15.476 c-0.249,0.034-0.494,0.068-0.73,0.101l-3.827,12.68c-0.256,0.852,0.225,1.749,1.075,2.006l22.587,6.82 c0.851,0.256,1.748-0.225,2.005-1.076l1.479-4.902L37.758,12.713z M36.413,12.898c0.053-0.007,0.099-0.014,0.142-0.02 C36.512,12.885,36.466,12.891,36.413,12.898z M34.334,13.185c0.08-0.011,0.159-0.021,0.236-0.032 C34.493,13.163,34.414,13.173,34.334,13.185z"/><linearGradient id="XMLID_27_" x1="12.403" x2="40.508" y1="26.704" y2="26.704" gradientUnits="userSpaceOnUse"><stop style="stop-color:#888" id="stop647" offset="0"/><stop style="stop-color:#555" id="stop648" offset="1"/></linearGradient><path style="opacity:.3;fill:url(#XMLID_27_)" id="path652" d="M40.239,30.744l0.05,0.359l-1.479,4.902 c-0.257,0.852-1.154,1.332-2.005,1.076l-22.587-6.82c-0.85-0.257-1.332-1.154-1.075-2.006l3.482-11.537 c-0.031-0.37,0.094-0.754,0.265-1.132c-0.223,0.031-0.44,0.061-0.651,0.09l-3.738,12.386c-0.363,1.203,0.32,2.479,1.523,2.842 l22.586,6.819c1.203,0.363,2.478-0.32,2.841-1.523l1.057-3.503L40.239,30.744z"/><polygon style="fill:#003da9" id="polygon653" points="38.722 32.001 31.627 42.053 41.232 40.73 39.817 30.447"/><linearGradient id="XMLID_28_" x1="41.545" x2="36.144" y1="40.628" y2="36.65" gradientUnits="userSpaceOnUse"><stop style="stop-color:#c5f0ff" id="stop655" offset="0"/><stop style="stop-color:#1d74d9" id="stop656" offset="1"/></linearGradient><polygon style="fill:url(#XMLID_28_)" id="polygon660" points="33.236 41.074 40.388 40.089 39.334 32.434"/><path style="fill:#fff" id="path661" d="M39.119,34.537c-0.04-0.292-0.077-0.566-0.111-0.812c-1.105,1.579-3.719,5.312-4.736,6.767 c0.226-0.031,0.48-0.066,0.752-0.104C36.073,38.888,38.011,36.121,39.119,34.537z"/><polyline id="_x3C_Slice_x3E_" points="0 48 0 0 47.987 0 47.987 48" style="fill:none"/></g></svg>