<svg xmlns="http://www.w3.org/2000/svg" xmlns:cc="http://web.resource.org/cc/" xmlns:svg="http://www.w3.org/2000/svg" xmlns:xlink="http://www.w3.org/1999/xlink" id="svg2" width="64" height="64" version="1.0" viewBox="0 0 256 256" xml:space="preserve"><metadata id="metadata40"/><g id="switch6"><g id="g10"><g id="Layer_1"><rect style="fill:none" id="_x3C_Slice_x3E_" width="256" height="256" x="0" y="0"/><linearGradient id="XMLID_5_" x1="14.347" x2="241.653" y1="128" y2="128" gradientUnits="userSpaceOnUse"><stop style="stop-color:#033;stop-opacity:1" id="stop15" offset="0"/><stop style="stop-color:#006a00;stop-opacity:1" id="stop17" offset=".994"/></linearGradient><path style="fill:url(#XMLID_5_)" id="path19" d="M 47.2,47.093 C 25.468,68.774 13.5,97.444 13.5,127.82 C 13.5,191.055 64.861,242.5 127.993,242.5 C 191.132,242.5 242.5,191.055 242.5,127.82 C 242.5,97.335 230.576,68.641 208.924,47.024 C 187.271,25.406 158.529,13.5 127.993,13.5 C 97.611,13.5 68.918,25.43 47.2,47.093 z"/><path style="fill:#9f6" id="path21" d="M 51.116,51.015 C 30.432,71.65 19.04,98.926 19.04,127.82 C 19.04,188 67.918,236.96 127.993,236.96 C 188.082,236.96 236.96,188 236.96,127.82 C 236.96,67.839 188.082,19.041 127.993,19.041 C 99.088,19.041 71.786,30.394 51.116,51.015 z"/><radialGradient id="XMLID_6_" cx="96.543" cy="164.494" r="57.266" fx="96.543" fy="164.494" gradientTransform="matrix(2.991900,0.000000,0.000000,2.992300,-169.6192,-438.1747)" gradientUnits="userSpaceOnUse"><stop style="stop-color:#fff;stop-opacity:1" id="stop24" offset="0"/><stop style="stop-color:#fafefa;stop-opacity:1" id="stop26" offset=".008"/><stop style="stop-color:#beefbe;stop-opacity:1" id="stop28" offset=".117"/><stop style="stop-color:#8ce28c;stop-opacity:1" id="stop30" offset=".221"/><stop style="stop-color:#66d966;stop-opacity:1" id="stop32" offset=".319"/><stop style="stop-color:#4ad24a;stop-opacity:1" id="stop34" offset=".408"/><stop style="stop-color:#39cd39;stop-opacity:1" id="stop36" offset=".486"/><stop style="stop-color:#3c3;stop-opacity:1" id="stop38" offset=".545"/><stop style="stop-color:#39ce39;stop-opacity:1" id="stop40" offset=".592"/><stop style="stop-color:#4bd24b;stop-opacity:1" id="stop42" offset=".658"/><stop style="stop-color:#69d969;stop-opacity:1" id="stop44" offset=".734"/><stop style="stop-color:#92e492;stop-opacity:1" id="stop46" offset=".818"/><stop style="stop-color:#c5f1c5;stop-opacity:1" id="stop48" offset=".907"/><stop style="stop-color:#fff;stop-opacity:1" id="stop50" offset=".994"/></radialGradient><path style="fill:url(#XMLID_6_)" id="path52" d="M 127.993,233.446 C 186.216,233.446 233.447,186.012 233.447,127.82 C 233.447,69.995 186.22,22.554 127.993,22.554 C 70.186,22.554 22.555,69.995 22.555,127.82 C 22.554,186.013 70.186,233.446 127.993,233.446 z"/><linearGradient id="XMLID_7_" x1="127.662" x2="127.662" y1="63.215" y2="241.076" gradientUnits="userSpaceOnUse"><stop style="stop-color:#006a00;stop-opacity:1" id="stop55" offset="0"/><stop style="stop-color:#033;stop-opacity:1" id="stop57" offset=".2"/><stop style="stop-color:#3c3;stop-opacity:1" id="stop59" offset="1"/></linearGradient><path style="fill:url(#XMLID_7_)" id="path61" d="M 92.97,34.156 C 92.451,34.156 91.88,34.367 91.292,34.698 C 92.666,34.299 93.313,34.156 92.97,34.156 M 126.92,40.778 L 127.262,35.812 L 122.021,36.143 L 122.717,40.778 L 126.92,40.778 M 67.771,126.627 C 66.718,125.63 67.421,121.318 67.421,121.318 C 67.421,121.318 51.669,113.038 34.517,108.06 C 32.407,107.447 33.472,103.094 35.563,101.438 L 34.867,96.784 C 34.517,94.474 38.37,83.207 42.219,82.217 C 46.072,81.217 41.869,88.838 41.869,88.838 L 38.021,91.159 C 38.021,91.159 42.568,96.46 43.622,96.46 C 44.667,96.46 46.417,93.808 46.417,93.808 L 41.522,90.505 L 46.075,88.507 L 46.357,86.761 L 47.125,86.52 L 54.656,75.106 C 59.859,72.977 66.259,70.339 67.072,69.948 C 68.472,69.289 78.268,63.657 80.022,62.329 C 81.774,61.001 85.62,61.34 87.015,61.34 C 88.419,61.34 90.521,60.671 90.868,57.022 C 91.218,53.376 92.621,52.713 93.671,53.711 C 94.721,54.696 92.618,56.359 95.071,57.022 C 97.52,57.688 99.616,59.346 101.373,57.688 C 102.652,56.472 100.939,55.088 99.785,54.049 L 119.217,54.049 L 121.323,48.071 L 116.771,47.408 L 99.966,45.757 L 99.966,43.762 L 98.627,43.988 C 100.448,33.992 111.253,35.636 103.119,29.85 C 102.622,29.496 95.504,41.069 93.695,40.843 C 90.418,40.41 86.174,40.376 85.272,41.441 C 84.08,42.852 87.958,36.596 91.295,34.695 C 85.968,36.268 69.125,42.031 51.325,61 C 34.302,79.13 27.519,103.562 27.519,104.412 C 27.519,106.067 31.021,106.733 31.372,108.724 C 31.718,110.703 24.72,117.339 24.72,120.654 C 24.72,122.181 23.073,142.606 28.914,159.434 C 35.747,179.072 50.325,195.476 52.018,196.551 L 55.518,194.889 C 55.518,194.889 47.466,180.641 47.117,179.314 C 46.775,177.993 56.218,158.768 60.774,159.434 C 65.322,160.089 64.273,161.424 67.072,159.761 C 69.871,158.111 71.621,144.513 74.773,143.198 C 77.926,141.865 81.421,140.211 81.075,136.898 C 80.721,133.574 68.825,127.614 67.772,126.625 L 67.771,126.625 M 143.722,29.183 L 134.272,25.864 L 136.025,31.173 L 143.722,29.183 M 108.369,41.444 C 109.418,41.444 130.422,27.532 128.319,27.196 C 126.224,26.865 125.874,27.196 120.265,26.534 C 114.666,25.868 108.715,34.488 107.315,35.812 C 105.92,37.144 106.39,41.444 108.369,41.444 L 108.369,41.444 M 204.736,141.375 L 207.445,137.86 L 204.736,136.905 L 202.705,139.463 L 200.335,142.971 L 202.363,143.929 L 204.736,141.375 M 216.588,152.883 L 215.91,147.771 L 211.516,147.771 L 211.174,151.597 L 207.099,150.968 L 206.091,146.807 L 204.06,145.536 L 201.681,148.403 L 199.319,147.771 L 198.638,149.998 L 201.347,150.649 L 201.347,171.409 L 210.936,173.715 C 210.719,174.095 210.548,174.419 210.497,174.592 C 209.812,176.83 213.202,177.801 215.572,176.83 C 216.453,176.484 219.239,173.662 220.989,169.494 C 223.434,163.688 225.564,156.021 225.993,153.313 L 227.088,150.968 L 220.317,153.524 L 216.585,152.887 L 216.588,152.883 M 230.82,114.227 L 229.048,110.804 C 226.952,98.987 222.152,83.863 211.855,68.231 C 196.359,44.736 153.237,31.185 153.237,31.185 L 150.871,34.052 L 149.513,31.821 L 146.127,30.538 L 146.127,33.412 L 149.183,35.974 L 147.148,36.93 L 139.356,37.566 L 121.737,47.152 L 123.429,54.816 L 121.39,55.46 L 120.382,57.055 L 126.137,65.675 L 126.479,68.557 L 121.735,69.513 L 121.735,75.258 L 119.026,75.897 L 119.368,80.371 L 96.33,96.349 L 97.007,105.281 C 98.696,107.519 111.917,120.939 111.917,120.939 C 111.917,120.939 127.157,121.571 130.542,119.66 C 133.932,117.745 131.558,121.575 132.577,122.531 C 133.589,123.498 133.931,130.198 134.944,130.841 C 135.96,131.478 134.944,135.308 136.298,136.594 C 137.656,137.862 137.656,153.204 137.656,153.204 C 137.656,153.204 145.786,166.929 145.786,170.449 C 145.786,173.964 145.444,173.639 151.89,173.324 C 158.323,173.007 159.677,170.449 161.028,169.494 C 162.389,168.535 162.389,166.296 163.744,164.377 C 165.102,162.459 167.469,155.118 170.524,152.568 C 173.566,150.002 181.697,148.083 182.375,143.618 C 183.048,139.144 186.096,135.628 186.096,135.628 L 200.745,120.135 L 200.335,122.215 L 199.992,130.195 L 204.398,128.604 L 204.06,119.974 L 202.475,118.304 L 202.704,118.055 C 202.704,118.055 201.681,116.144 200.334,116.144 C 198.977,116.144 190.843,118.055 189.491,117.743 C 188.134,117.423 182.374,102.088 181.357,101.453 C 180.337,100.813 173.909,90.271 173.909,90.271 C 173.909,90.271 188.81,108.16 191.18,115.185 C 192.554,119.278 197.727,115.467 201.929,111.197 L 203.046,113.909 L 205.751,113.265 L 205.412,110.071 L 208.456,110.071 L 208.456,114.864 L 207.443,117.423 L 207.097,121.569 L 209.81,124.131 L 211.164,121.9 L 215.561,117.743 L 220.648,115.185 L 222.007,117.743 L 222.684,121.257 L 221.326,125.087 L 218.617,127.326 L 217.263,133.077 L 217.263,135.945 L 214.219,134.03 L 213.877,127.965 L 209.476,128.285 L 207.444,133.71 L 210.496,138.19 L 217.606,139.146 L 223.365,133.709 L 224.043,123.175 L 226.606,119.793 C 228.273,124.085 229.465,128.578 229.465,132.757 C 229.465,137.343 231.565,129.583 229.778,115.594 L 230.82,114.227 L 230.82,114.227 M 145.445,81.646 L 127.157,80.999 L 134.941,74.615 L 139.007,74.615 L 145.445,79.084 L 145.445,81.646 L 145.445,81.646 M 167.812,79.411 L 167.812,82.286 L 160.024,82.286 L 160.698,84.208 L 155.954,84.848 L 155.619,86.439 L 152.228,85.807 L 146.126,84.52 L 147.147,82.929 L 148.162,81.007 L 151.553,77.497 L 152.91,80.052 L 157.989,79.732 L 160.698,76.854 L 171.194,78.772 L 167.812,79.416 L 167.812,79.411 M 168.484,75.254 L 164.421,75.893 L 163.744,73.016 L 168.819,72.38 L 169.501,69.505 L 173.236,73.346 L 168.484,75.25 L 168.484,75.254 M 188.135,174.591 L 185.764,176.509 L 186.096,181.307 L 189.151,181.307 L 189.151,177.157 L 191.86,173.639 L 191.86,166.295 L 190.167,165.968 L 188.14,174.591 L 188.135,174.591 M 165.441,165.02 C 165.441,165.02 163.067,165.641 165.776,166.609 C 168.484,167.575 179.327,150.968 179.327,150.968 L 170.178,156.709 L 165.441,165.02 L 165.441,165.02 M 146.999,226.237 L 144.975,224.307 L 140.909,223.661 L 140.235,225.595 L 134.817,224.955 L 134.479,222.382 L 130.412,222.382 L 126.011,224.955 L 118.223,224.955 L 117.55,223.024 L 105.025,221.731 L 102.986,223.661 L 97.914,222.382 L 97.234,217.871 L 94.864,217.543 L 92.155,222.382 L 83.016,222.058 C 84.649,222.833 98.302,230.974 119.239,232.679 C 147,234.925 160.209,228.175 160.209,228.175 L 159.188,227.205 L 147,226.241 L 147,226.237 L 146.999,226.237 z"/><linearGradient id="XMLID_8_" x1="127.567" x2="127.567" y1="23.615" y2="190.814" gradientUnits="userSpaceOnUse"><stop style="stop-color:#fff;stop-opacity:1" id="stop64" offset="0"/><stop style="stop-color:#000;stop-opacity:1" id="stop66" offset=".994"/></linearGradient><path style="fill:url(#XMLID_8_)" id="path68" d="M 127.639,106.691 C 163.76,106.691 195.177,94.242 211.34,75.898 C 195.065,44.826 163.612,23.615 127.485,23.615 C 91.672,23.618 60.176,44.751 43.795,75.739 C 59.92,94.17 91.417,106.691 127.639,106.691 z"/></g></g></g></svg>