<svg xmlns="http://www.w3.org/2000/svg" xmlns:pdf="http://ns.adobe.com/pdf/1.3/" xmlns:x="adobe:ns:meta/" xmlns:xap="http://ns.adobe.com/xap/1.0/" xmlns:xapGImg="http://ns.adobe.com/xap/1.0/g/img/" xmlns:xapMM="http://ns.adobe.com/xap/1.0/mm/" xmlns:xlink="http://www.w3.org/1999/xlink" xmlns:xml="http://www.w3.org/XML/1998/namespace" style="overflow:visible;enable-background:new 0 0 48 48" id="svg548" width="64" height="64" viewBox="0 0 48 48" xml:space="preserve"><metadata id="metadata549"><xpacket>begin=&apos; &apos; id=&apos;W5M0MpCehiHzreSzNTczkc9d&apos;</xpacket><x:xmpmeta x:xmptk="XMP toolkit 3.0-29, framework 1.6"/><xpacket>end=&apos;w&apos;</xpacket></metadata><g id="Layer_1"><g id="g551"><path style="opacity:.2" id="path552" d="M22.086,4.396L22.086,4.396c-5.454,0.671-10.319,3.427-13.701,7.758 c-3.381,4.33-4.874,9.719-4.203,15.173c0.671,5.453,3.426,10.319,7.757,13.701c8.941,6.979,21.893,5.385,28.874-3.555 c3.376-4.324,4.865-9.712,4.193-15.173c-0.672-5.459-3.425-10.325-7.749-13.702C32.928,5.217,27.539,3.725,22.086,4.396 M23.817,25.814c-0.31-0.242-0.487-0.608-0.487-1.004c0-0.285,0.092-0.555,0.268-0.779c0.208-0.268,0.51-0.438,0.848-0.479 c0.336-0.042,0.669,0.05,0.935,0.259c0.268,0.208,0.438,0.509,0.479,0.846c0.042,0.338-0.051,0.671-0.259,0.938 C25.17,26.146,24.37,26.245,23.817,25.814z"/><path style="opacity:.2" id="path553" d="M21.524,4.114L21.524,4.114C16.07,4.786,11.205,7.541,7.823,11.872c-3.381,4.33-4.874,9.719-4.203,15.173 c0.671,5.453,3.426,10.319,7.757,13.701c8.941,6.979,21.893,5.385,28.874-3.555c3.376-4.324,4.865-9.712,4.193-15.173 c-0.672-5.459-3.425-10.325-7.749-13.702C32.365,4.936,26.977,3.443,21.524,4.114 M23.255,25.533 c-0.31-0.242-0.487-0.608-0.487-1.004c0-0.285,0.092-0.555,0.268-0.779c0.208-0.268,0.51-0.438,0.848-0.479 c0.336-0.042,0.669,0.05,0.936,0.259c0.267,0.208,0.437,0.509,0.478,0.846c0.042,0.338-0.051,0.671-0.259,0.938 C24.607,25.865,23.808,25.964,23.255,25.533z"/><path style="fill:#3a3aa9" id="path554" d="M21.243,3.552L21.243,3.552C15.789,4.223,10.923,6.979,7.542,11.31c-3.381,4.33-4.874,9.719-4.203,15.173 c0.671,5.453,3.426,10.319,7.757,13.701c8.941,6.979,21.893,5.385,28.874-3.555c3.376-4.324,4.865-9.712,4.193-15.173 c-0.672-5.459-3.425-10.325-7.749-13.702C32.084,4.373,26.695,2.881,21.243,3.552 M22.974,24.971 c-0.31-0.242-0.487-0.608-0.487-1.004c0-0.285,0.092-0.555,0.268-0.779c0.208-0.268,0.51-0.438,0.848-0.48 c0.336-0.041,0.669,0.051,0.936,0.26c0.267,0.208,0.437,0.509,0.478,0.846c0.042,0.338-0.05,0.671-0.258,0.938 C24.326,25.303,23.526,25.401,22.974,24.971z"/><linearGradient id="XMLID_3_" x1="4.637" x2="42.875" y1="23.969" y2="23.969" gradientUnits="userSpaceOnUse"><stop style="stop-color:#e6edff" id="stop556" offset="0"/><stop style="stop-color:#b3caff" id="stop557" offset="1"/></linearGradient><path style="fill:url(#XMLID_3_)" id="path561" d="M8.687,12.203c-6.498,8.323-5.019,20.338,3.303,26.835 c8.323,6.498,20.337,5.02,26.835-3.304c6.498-8.322,5.018-20.337-3.305-26.835S15.184,3.88,8.687,12.203 M25.902,25.645 c-0.924,1.185-2.639,1.396-3.823,0.472c-1.183-0.925-1.395-2.639-0.47-3.823c0.924-1.184,2.639-1.396,3.822-0.471 C26.615,22.746,26.827,24.461,25.902,25.645z"/><path style="fill:#fff" id="path562" d="M26.139,25.342c0.906-1.16,0.679-2.856-0.504-3.781c-1.184-0.924-2.883-0.731-3.789,0.429 c-0.04,0.05-0.075,0.103-0.11,0.156c0.948-1.05,2.563-1.207,3.695-0.323s1.372,2.49,0.582,3.663 C26.057,25.438,26.1,25.393,26.139,25.342 M12.464,38.431c-8.271-6.457-9.887-18.229-3.656-26.379 c-0.041,0.051-0.082,0.101-0.122,0.152c-6.498,8.323-5.019,20.338,3.303,26.835c8.323,6.498,20.337,5.02,26.835-3.304 c0.039-0.051,0.078-0.104,0.118-0.154C32.547,43.602,20.736,44.89,12.464,38.431z"/><path style="opacity:.3;fill:#9b95ff" id="path563" d="M35.521,8.899c-2.782-2.172-5.978-3.452-9.24-3.884l-0.978,6.973l-1.299,9.271 c0.503,0.045,1,0.229,1.428,0.563c0.354,0.277,0.618,0.624,0.795,1.007l8.538-3.453l6.668-2.696 C40.213,13.713,38.229,11.014,35.521,8.899z"/><path style="opacity:.7;fill:#fff" id="path564" d="M39.523,13.15c-1.08-1.575-2.416-3.013-4.003-4.251c-1.665-1.3-3.478-2.28-5.365-2.951 c-1.57,4.299-2.998,8.209-2.998,8.209s-1.212,3.317-2.63,7.201c0.319,0.094,0.626,0.246,0.905,0.463 c0.197,0.155,0.366,0.333,0.509,0.525C30.023,19.583,35.765,15.697,39.523,13.15z"/><path style="opacity:.3;fill:#9b95ff" id="path565" d="M23.174,26.626c-0.387-0.084-0.762-0.251-1.095-0.51c-0.405-0.318-0.694-0.729-0.864-1.178l-8.801,3.559 l-6.404,2.59c1.213,3.034,3.219,5.796,5.98,7.951c2.688,2.099,5.759,3.364,8.906,3.837l0.98-6.989L23.174,26.626z"/><path style="opacity:.7;fill:#fff" id="path566" d="M22.079,26.116c-0.2-0.158-0.372-0.34-0.516-0.536c-3.474,2.352-6.464,4.377-6.464,4.377 s-3.375,2.285-7.119,4.82c1.083,1.579,2.421,3.021,4.009,4.261c1.625,1.269,3.39,2.231,5.228,2.9 c1.588-4.348,3.963-10.852,5.627-15.405C22.575,26.438,22.316,26.301,22.079,26.116z"/><path style="fill:#9b95ff" id="path567" d="M18.077,19.535c-2.445,3.131-1.886,7.668,1.245,10.113c3.131,2.445,7.668,1.887,10.111-1.244 c2.445-3.131,1.887-7.668-1.244-10.113C25.059,15.846,20.522,16.404,18.077,19.535 M25.902,25.645 c-0.924,1.185-2.639,1.396-3.823,0.472c-1.183-0.925-1.395-2.639-0.47-3.823c0.924-1.184,2.639-1.396,3.822-0.471 C26.615,22.746,26.827,24.461,25.902,25.645z"/><path style="fill:#e6e6e6" id="path568" d="M20.044,21.071c-1.597,2.046-1.233,5.012,0.813,6.609s5.012,1.232,6.609-0.813 c1.598-2.047,1.233-5.012-0.814-6.61C24.606,18.659,21.642,19.024,20.044,21.071 M25.902,25.645 c-0.924,1.185-2.639,1.396-3.823,0.472c-1.183-0.925-1.395-2.639-0.47-3.823c0.924-1.184,2.639-1.396,3.822-0.471 C26.615,22.746,26.827,24.461,25.902,25.645z"/><rect style="opacity:.5;fill:none" id="rect569" width="42.14" height="42.141" x="2.842" y="2.632"/><linearGradient id="XMLID_4_" x1="23.913" x2="23.913" y1="16.236" y2="8.494" gradientUnits="userSpaceOnUse"><stop style="stop-color:#e1e1ff" id="stop571" offset="0"/><stop style="stop-color:#fff" id="stop572" offset="1"/></linearGradient><path style="opacity:.7;fill:url(#XMLID_4_)" id="path576" d="M23.912,5.307c-7.798,0-14.143,3.792-14.143,8.454 c0,3.138,2.901,5.939,7.362,7.395c0.24-0.566,0.549-1.113,0.946-1.62c2.445-3.13,6.981-3.689,10.112-1.245 c1.021,0.799,1.765,1.821,2.224,2.944c4.576-1.438,7.642-4.311,7.642-7.474C38.055,9.099,31.71,5.307,23.912,5.307z"/></g><polyline id="_x3C_Slice_x3E_" points="0 48 0 0 48 0 48 48" style="fill:none"/></g></svg>