<svg xmlns="http://www.w3.org/2000/svg" xmlns:pdf="http://ns.adobe.com/pdf/1.3/" xmlns:x="adobe:ns:meta/" xmlns:xap="http://ns.adobe.com/xap/1.0/" xmlns:xapGImg="http://ns.adobe.com/xap/1.0/g/img/" xmlns:xapMM="http://ns.adobe.com/xap/1.0/mm/" xmlns:xlink="http://www.w3.org/1999/xlink" xmlns:xml="http://www.w3.org/XML/1998/namespace" style="overflow:visible;enable-background:new 0 0 48 48" id="svg1369" width="64" height="64" viewBox="0 0 48 48" xml:space="preserve"><metadata id="metadata1370"><xpacket>begin=&apos; &apos; id=&apos;W5M0MpCehiHzreSzNTczkc9d&apos;</xpacket><x:xmpmeta x:xmptk="XMP toolkit 3.0-29, framework 1.6"/><xpacket>end=&apos;w&apos;</xpacket></metadata><g id="Layer_1"><g id="g1372"><path style="opacity:.2" id="path1373" d="M36.33,41.438h-0.673h-7.922c-0.166-0.287-0.425-0.514-0.735-0.64v-8.69h-4.875v0.367v8.323 c-0.311,0.126-0.569,0.353-0.735,0.64h-8.594v4.875h8.441c0.167,0.646,0.752,1.125,1.451,1.125h3.75 c0.699,0,1.284-0.479,1.451-1.125h8.441V41.438z"/><path style="opacity:.2" id="path1374" d="M36.143,41.25H35.47h-7.922c-0.166-0.287-0.425-0.514-0.735-0.64v-8.69h-4.875v0.367v8.323 c-0.311,0.126-0.569,0.353-0.735,0.64h-8.594v4.875h8.441c0.167,0.646,0.752,1.125,1.451,1.125h3.75 c0.699,0,1.284-0.479,1.451-1.125h8.441V41.25z"/><path style="opacity:.2" id="path1375" d="M35.955,41.063h-0.673H27.36c-0.166-0.287-0.425-0.514-0.735-0.64v-8.69H21.75V32.1v8.323 c-0.311,0.126-0.569,0.353-0.735,0.64H12.42v4.875h8.441c0.167,0.646,0.752,1.125,1.451,1.125h3.75 c0.699,0,1.284-0.479,1.451-1.125h8.441V41.063z"/><polygon style="fill:#616161" id="polygon1376" points="35.095 40.875 12.233 40.875 12.233 45.75 35.768 45.75 35.768 40.875"/><linearGradient id="XMLID_16_" x1="24" x2="24" y1="41.547" y2="45.078" gradientUnits="userSpaceOnUse"><stop style="stop-color:#cecedb" id="stop1378" offset="0"/><stop style="stop-color:#fff" id="stop1379" offset=".191"/><stop style="stop-color:#cecedb" id="stop1380" offset=".483"/><stop style="stop-color:#b3b3c6" id="stop1381" offset=".753"/><stop style="stop-color:#828282" id="stop1382" offset=".994"/></linearGradient><rect style="fill:url(#XMLID_16_)" id="rect1392" width="22.189" height="3.531" x="12.905" y="41.547"/><polygon style="fill:#616161" id="polygon1393" points="21.563 31.912 21.563 44.393 26.438 44.393 26.438 31.545 21.563 31.545"/><linearGradient id="XMLID_17_" x1="167.135" x2="167.135" y1="405.131" y2="408.662" gradientTransform="matrix(0 -1 1 0 -382.8965 205.1035)" gradientUnits="userSpaceOnUse"><stop style="stop-color:#cecedb" id="stop1395" offset="0"/><stop style="stop-color:#fff" id="stop1396" offset=".191"/><stop style="stop-color:#cecedb" id="stop1397" offset=".483"/><stop style="stop-color:#b3b3c6" id="stop1398" offset=".753"/><stop style="stop-color:#828282" id="stop1399" offset=".994"/></linearGradient><rect style="fill:url(#XMLID_17_)" id="rect1409" width="3.531" height="12.113" x="22.235" y="31.912"/><linearGradient id="XMLID_18_" x1="24" x2="24" y1="46.875" y2="40.125" gradientUnits="userSpaceOnUse"><stop style="stop-color:#cf0000" id="stop1411" offset="0"/><stop style="stop-color:#ff6d00" id="stop1412" offset=".994"/></linearGradient><path style="fill:url(#XMLID_18_)" id="path1416" d="M27.375,45.375c0,0.828-0.672,1.5-1.5,1.5h-3.75c-0.828,0-1.5-0.672-1.5-1.5v-3.75 c0-0.828,0.672-1.5,1.5-1.5h3.75c0.828,0,1.5,0.672,1.5,1.5V45.375z"/><linearGradient id="XMLID_19_" x1="24" x2="24" y1="37.5" y2="50.063" gradientUnits="userSpaceOnUse"><stop style="stop-color:#fff030" id="stop1418" offset="0"/><stop style="stop-color:#ffae00" id="stop1419" offset=".994"/></linearGradient><path style="fill:url(#XMLID_19_)" id="path1423" d="M22.125,40.875c-0.414,0-0.75,0.337-0.75,0.75v3.75c0,0.414,0.336,0.75,0.75,0.75h3.75 c0.414,0,0.75-0.336,0.75-0.75v-3.75c0-0.413-0.336-0.75-0.75-0.75H22.125z"/><linearGradient id="XMLID_20_" x1="24" x2="24" y1="41.438" y2="44.25" gradientUnits="userSpaceOnUse"><stop style="stop-color:#fff" id="stop1425" offset="0"/><stop style="stop-color:#ffe3a9" id="stop1426" offset=".497"/><stop style="stop-color:#ffc957" id="stop1427" offset=".994"/></linearGradient><path style="fill:url(#XMLID_20_)" id="path1431" d="M22.125,41.438c-0.104,0-0.188,0.084-0.188,0.188v3.75c0,0.104,0.084,0.188,0.188,0.188 h3.75c0.104,0,0.188-0.084,0.188-0.188v-3.75c0-0.104-0.084-0.188-0.188-0.188H22.125z"/></g><path style="opacity:.2" id="path1432" d="M11.729,6.838c-3.453,3.443-5.354,7.997-5.354,12.821c0,10.043,8.159,18.214,18.187,18.214 c10.029,0,18.188-8.171,18.188-18.214c0-10.012-8.159-18.157-18.188-18.157C19.735,1.502,15.178,3.397,11.729,6.838z"/><path style="opacity:.2" id="path1433" d="M11.541,6.463c-3.453,3.443-5.354,7.997-5.354,12.821c0,10.043,8.159,18.214,18.187,18.214 c10.029,0,18.188-8.171,18.188-18.214c0-10.012-8.159-18.157-18.188-18.157C19.548,1.127,14.99,3.022,11.541,6.463z"/><linearGradient id="XMLID_21_" x1="5.812" x2="42.188" y1="18.938" y2="18.938" gradientUnits="userSpaceOnUse"><stop style="stop-color:#0053bd" id="stop1435" offset="0"/><stop style="stop-color:#0032a4" id="stop1436" offset=".994"/></linearGradient><path style="fill:url(#XMLID_21_)" id="path1440" d="M11.166,6.088c-3.453,3.443-5.354,7.997-5.354,12.821 c0,10.043,8.159,18.214,18.188,18.214s18.188-8.171,18.188-18.214C42.188,8.897,34.028,0.752,24,0.752 C19.173,0.752,14.615,2.647,11.166,6.088z"/><path style="fill:#b0d9ff" id="path1441" d="M11.695,6.619c-3.31,3.302-5.133,7.667-5.133,12.29c0,9.629,7.822,17.464,17.438,17.464 c9.616,0,17.438-7.835,17.438-17.464c0-9.598-7.822-17.407-17.438-17.407C19.373,1.502,15.003,3.319,11.695,6.619z"/><path style="fill:#fff" id="path1442" d="M24,35.811c9.317,0,16.875-7.59,16.875-16.902c0-9.253-7.558-16.844-16.875-16.844 c-9.251,0-16.875,7.591-16.875,16.844C7.125,28.221,14.748,35.811,24,35.811z"/><radialGradient id="XMLID_22_" cx="16.509" cy="-66.12" r="146.239" fx="16.509" fy="-66.12" gradientTransform="matrix(0.1875 0 0 0.1875 19.5 19.5)" gradientUnits="userSpaceOnUse"><stop style="stop-color:#fff" id="stop1444" offset="0"/><stop style="stop-color:#57adff" id="stop1445" offset=".596"/><stop style="stop-color:#c9e6ff" id="stop1446" offset=".994"/></radialGradient><path style="fill:url(#XMLID_22_)" id="path1452" d="M24,35.811c9.317,0,16.875-7.59,16.875-16.902c0-9.253-7.558-16.844-16.875-16.844 c-9.251,0-16.875,7.591-16.875,16.844C7.125,28.221,14.748,35.811,24,35.811z"/><linearGradient id="XMLID_23_" x1="23.931" x2="23.931" y1="2.234" y2="28.988" gradientUnits="userSpaceOnUse"><stop style="stop-color:#fff" id="stop1454" offset="0"/><stop style="stop-color:#57adff" id="stop1455" offset=".994"/></linearGradient><path style="fill:url(#XMLID_23_)" id="path1459" d="M23.942,15.527c5.78,0,10.809-1.992,13.396-4.927c-2.605-4.972-7.639-8.366-13.42-8.366 c-5.731,0-10.771,3.382-13.394,8.341C13.104,13.524,18.146,15.527,23.942,15.527z"/><linearGradient id="XMLID_24_" x1="23.946" x2="23.946" y1="8.571" y2="37.031" gradientUnits="userSpaceOnUse"><stop style="stop-color:#06c" id="stop1461" offset="0"/><stop style="stop-color:#036" id="stop1462" offset=".2"/><stop style="stop-color:#428aff" id="stop1463" offset="1"/></linearGradient><path style="fill:url(#XMLID_24_)" id="path1469" d="M18.394,3.921c-0.083,0-0.175,0.034-0.269,0.087C18.345,3.943,18.449,3.921,18.394,3.921z M23.827,4.981l0.055-0.795l-0.839,0.053l0.111,0.742H23.827z M14.361,18.717c-0.168-0.159-0.056-0.849-0.056-0.849 s-2.521-1.325-5.266-2.121c-0.338-0.098-0.167-0.795,0.167-1.06l-0.112-0.745c-0.056-0.37,0.561-2.173,1.177-2.331 c0.616-0.16-0.056,1.06-0.056,1.06L9.6,13.043c0,0,0.728,0.848,0.897,0.848c0.167,0,0.447-0.424,0.447-0.424l-0.784-0.529 l0.729-0.319l0.045-0.279l0.122-0.039l1.206-1.826c0.833-0.341,1.857-0.763,1.987-0.826c0.224-0.105,1.792-1.006,2.073-1.219 c0.281-0.213,0.896-0.159,1.119-0.159c0.225,0,0.561-0.107,0.617-0.691c0.056-0.583,0.28-0.689,0.449-0.53 c0.168,0.158-0.169,0.424,0.224,0.53c0.392,0.106,0.728,0.372,1.008,0.106c0.205-0.194-0.069-0.416-0.254-0.583h3.11l0.336-0.956 l-0.728-0.106l-2.69-0.265V5.459l-0.214,0.036c0.291-1.6,2.021-1.336,0.719-2.263C19.939,3.176,18.8,5.027,18.51,4.991 c-0.525-0.069-1.204-0.074-1.349,0.096c-0.19,0.226,0.43-0.776,0.964-1.08c-0.853,0.252-3.548,1.174-6.397,4.209 c-2.724,2.901-3.81,6.81-3.81,6.947c0,0.265,0.561,0.372,0.617,0.69c0.056,0.317-1.064,1.378-1.064,1.909 c0,0.245-0.264,3.513,0.671,6.206c1.093,3.143,3.426,5.767,3.697,5.939l0.56-0.266c0,0-1.288-2.28-1.344-2.493 c-0.056-0.211,1.456-3.287,2.185-3.181c0.728,0.104,0.56,0.318,1.008,0.053c0.448-0.265,0.728-2.44,1.232-2.651 c0.504-0.213,1.064-0.478,1.009-1.008C16.433,19.83,14.529,18.876,14.361,18.717L14.361,18.717z M26.516,3.125l-1.512-0.531 l0.28,0.85L26.516,3.125z M20.858,5.087c0.168,0,3.529-2.227,3.193-2.28c-0.335-0.053-0.392,0-1.289-0.106 c-0.896-0.106-1.849,1.273-2.072,1.485C20.466,4.399,20.542,5.087,20.858,5.087L20.858,5.087z M36.28,21.078l0.434-0.563 l-0.434-0.153l-0.325,0.409l-0.379,0.561l0.325,0.154L36.28,21.078z M38.178,22.919l-0.109-0.818h-0.703l-0.055,0.613 l-0.651-0.102l-0.161-0.665l-0.325-0.204l-0.381,0.459l-0.378-0.102l-0.109,0.357l0.434,0.104v3.321l1.535,0.369 c-0.035,0.062-0.063,0.113-0.071,0.141c-0.109,0.358,0.434,0.514,0.812,0.358c0.143-0.056,0.588-0.507,0.868-1.174 c0.391-0.929,0.732-2.156,0.801-2.589l0.176-0.375l-1.085,0.408L38.178,22.919L38.178,22.919z M40.455,16.733l-0.283-0.548 c-0.336-1.891-1.104-4.311-2.752-6.812c-2.48-3.76-9.381-5.928-9.381-5.928L27.66,3.904l-0.217-0.356L26.9,3.342v0.46l0.489,0.41 l-0.325,0.153l-1.248,0.102L22.998,6l0.271,1.226L22.942,7.33l-0.162,0.255l0.921,1.379l0.055,0.461l-0.759,0.153v0.919 L22.564,10.6l0.055,0.716l-3.688,2.557l0.108,1.429c0.271,0.358,2.386,2.506,2.386,2.506s2.439,0.101,2.981-0.205 c0.542-0.307,0.163,0.306,0.326,0.459c0.162,0.154,0.216,1.227,0.378,1.329c0.163,0.102,0,0.715,0.217,0.921 c0.217,0.203,0.217,2.658,0.217,2.658s1.302,2.197,1.302,2.759s-0.055,0.511,0.977,0.46c1.03-0.051,1.246-0.46,1.463-0.612 c0.218-0.154,0.218-0.512,0.435-0.819s0.596-1.482,1.084-1.89c0.487-0.41,1.789-0.717,1.896-1.432 c0.108-0.716,0.597-1.279,0.597-1.279l2.344-2.479l-0.065,0.333l-0.055,1.276l0.705-0.255l-0.054-1.381l-0.254-0.268l0.036-0.039 c0,0-0.163-0.306-0.379-0.306c-0.217,0-1.52,0.306-1.735,0.255c-0.217-0.051-1.14-2.505-1.302-2.606 c-0.163-0.103-1.192-1.79-1.192-1.79s2.386,2.863,2.765,3.986c0.221,0.655,1.048,0.045,1.721-0.638l0.179,0.435l0.433-0.104 l-0.055-0.511h0.488v0.767l-0.163,0.409l-0.056,0.664l0.435,0.41l0.218-0.357l0.703-0.665l0.814-0.409l0.217,0.409l0.108,0.563 l-0.218,0.613l-0.433,0.358l-0.218,0.92v0.459l-0.487-0.306l-0.054-0.971l-0.705,0.052l-0.325,0.868l0.488,0.717l1.139,0.153 l0.922-0.87l0.108-1.685l0.409-0.542c0.268,0.687,0.458,1.405,0.458,2.074c0,0.734,0.336-0.508,0.05-2.746L40.455,16.733 L40.455,16.733z M26.792,11.521l-2.927-0.104l1.246-1.021h0.65l1.03,0.715V11.521L26.792,11.521z M30.371,11.163v0.46h-1.246 l0.107,0.307l-0.759,0.103l-0.054,0.254l-0.543-0.101l-0.976-0.206l0.163-0.255l0.162-0.308l0.542-0.562l0.218,0.409l0.813-0.051 l0.433-0.46l1.681,0.307L30.371,11.163L30.371,11.163z M30.479,10.498L29.829,10.6l-0.108-0.46l0.813-0.102l0.108-0.459 l0.598,0.614L30.479,10.498L30.479,10.498z M33.624,26.393l-0.38,0.307l0.054,0.768h0.488v-0.663l0.435-0.563v-1.176 l-0.271-0.052L33.624,26.393L33.624,26.393z M29.992,24.861c0,0-0.38,0.1,0.054,0.254c0.433,0.154,2.168-2.503,2.168-2.503 l-1.464,0.919L29.992,24.861L29.992,24.861z M27.041,34.657l-0.324-0.309l-0.651-0.104l-0.107,0.309l-0.867-0.102l-0.055-0.412 h-0.65l-0.704,0.412h-1.246l-0.108-0.31l-2.005-0.207l-0.326,0.31l-0.812-0.205l-0.108-0.722l-0.379-0.053l-0.434,0.774 l-1.462-0.052c0.261,0.124,2.446,1.427,5.796,1.699c4.443,0.359,6.557-0.721,6.557-0.721l-0.163-0.155L27.041,34.657 L27.041,34.657z"/><g id="g1470"><linearGradient id="XMLID_25_" x1="28.135" x2="28.135" y1="3.342" y2="27.866" gradientUnits="userSpaceOnUse"><stop style="stop-color:#fff" id="stop1472" offset="0"/><stop style="stop-color:#00008d" id="stop1473" offset="1"/></linearGradient><path style="fill:url(#XMLID_25_)" id="path1477" d="M31.347,12.9c0,0,0.395,0.473,0.888,1.11 c2.125-0.854,3.885-2.027,5.104-3.41c-0.863-1.647-1.994-3.12-3.329-4.354c-2.812-1.807-5.97-2.8-5.97-2.8L27.66,3.904 l-0.217-0.356L26.9,3.342v0.46l0.489,0.41l-0.325,0.153l-1.248,0.102L22.998,6l0.271,1.226L22.942,7.33l-0.162,0.255 l0.921,1.379l0.055,0.461l-0.759,0.153v0.919L22.564,10.6l0.055,0.716l-3.688,2.557l0.087,1.15 c1.545,0.326,3.2,0.504,4.923,0.504c2.994,0,5.786-0.535,8.142-1.458C31.744,13.551,31.347,12.9,31.347,12.9z M23.865,11.417 l1.246-1.021h0.65l1.03,0.715v0.41v0L23.865,11.417z M30.371,11.163v0.459h-1.246l0.107,0.307l-0.759,0.103l-0.054,0.254 l-0.543-0.101l-0.976-0.206l0.163-0.255l0.162-0.308l0.542-0.562l0.218,0.409l0.813-0.051l0.433-0.46l1.681,0.307L30.371,11.163 z M30.479,10.497L30.479,10.497L29.829,10.6l-0.108-0.46l0.813-0.102l0.108-0.459l0.598,0.614L30.479,10.497z"/><linearGradient id="XMLID_26_" x1="22.318" x2="22.318" y1="2.695" y2="7.51" gradientUnits="userSpaceOnUse"><stop style="stop-color:#fff" id="stop1479" offset="0"/><stop style="stop-color:#00008d" id="stop1480" offset="1"/></linearGradient><path style="fill:url(#XMLID_26_);adobe-blending-mode:screen" id="path1484" d="M20.69,4.186c-0.224,0.213-0.148,0.901,0.168,0.901 c0.168,0,3.529-2.227,3.193-2.28c-0.335-0.053-0.392,0-1.289-0.106C21.866,2.595,20.913,3.974,20.69,4.186z"/><linearGradient id="XMLID_27_" x1="23.463" x2="23.463" y1="4.186" y2="5.786" gradientUnits="userSpaceOnUse"><stop style="stop-color:#fff" id="stop1486" offset="0"/><stop style="stop-color:#00008d" id="stop1487" offset="1"/></linearGradient><polygon style="fill:url(#XMLID_27_);adobe-blending-mode:screen" id="polygon1491" points="23.827 4.981 23.882 4.186 23.043 4.239 23.154 4.981"/><linearGradient id="XMLID_28_" x1="18.267" x2="18.267" y1="3.921" y2="4.096" gradientUnits="userSpaceOnUse"><stop style="stop-color:#fff" id="stop1493" offset="0"/><stop style="stop-color:#00008d" id="stop1494" offset="1"/></linearGradient><path style="fill:url(#XMLID_28_);adobe-blending-mode:screen" id="path1498" d="M18.394,3.921c-0.083,0-0.175,0.034-0.269,0.087 C18.345,3.943,18.449,3.921,18.394,3.921z"/><linearGradient id="XMLID_29_" x1="25.76" x2="25.76" y1="2.594" y2="4.304" gradientUnits="userSpaceOnUse"><stop style="stop-color:#fff" id="stop1500" offset="0"/><stop style="stop-color:#00008d" id="stop1501" offset="1"/></linearGradient><polygon style="fill:url(#XMLID_29_);adobe-blending-mode:screen" id="polygon1505" points="26.516 3.125 25.004 2.594 25.284 3.444"/><linearGradient id="XMLID_30_" x1="16.727" x2="16.727" y1="3.231" y2="20.023" gradientUnits="userSpaceOnUse"><stop style="stop-color:#fff" id="stop1507" offset="0"/><stop style="stop-color:#00008d" id="stop1508" offset="1"/></linearGradient><path style="fill:url(#XMLID_30_);adobe-blending-mode:screen" id="path1512" d="M14.249,9.648c0.224-0.105,1.792-1.006,2.073-1.219 c0.281-0.213,0.896-0.159,1.119-0.159c0.225,0,0.561-0.107,0.617-0.691c0.056-0.583,0.28-0.689,0.449-0.53 c0.168,0.158-0.169,0.424,0.224,0.53c0.392,0.106,0.728,0.372,1.008,0.106c0.205-0.194-0.069-0.416-0.254-0.583h3.11 l0.336-0.956l-0.728-0.106l-2.69-0.265V5.459l-0.214,0.036c0.291-1.6,2.021-1.336,0.719-2.263 C19.939,3.176,18.8,5.027,18.51,4.991c-0.525-0.069-1.204-0.074-1.349,0.096c-0.19,0.226,0.43-0.776,0.964-1.08 c-0.661,0.195-2.431,0.794-4.521,2.468c-1.225,1.18-2.269,2.563-3.081,4.099c0.304,0.347,0.643,0.68,1.012,0.999l0.726-1.1 C13.095,10.133,14.119,9.711,14.249,9.648z"/></g><polyline id="_x3C_Slice_x3E_" points="0 48 0 0 48 0 48 48" style="fill:none"/></g></svg>