<svg xmlns="http://www.w3.org/2000/svg" xmlns:svg="http://www.w3.org/2000/svg" xmlns:xlink="http://www.w3.org/1999/xlink" id="svg7347" width="100%" height="100%" version="1.1" viewBox="0 0 805.22 701.74"><defs id="defs7349"><filter id="filter5076" width="1.224" height="1.169" x="-.112" y="-.084" color-interpolation-filters="sRGB"><feGaussianBlur id="feGaussianBlur5078" stdDeviation="12.537"/></filter><filter id="filter3485" color-interpolation-filters="sRGB"><feGaussianBlur id="feGaussianBlur3487" stdDeviation=".427"/></filter><filter id="filter3560" color-interpolation-filters="sRGB"><feGaussianBlur id="feGaussianBlur3562" stdDeviation=".351"/></filter><filter id="filter3699" width="1.256" height="1.059" x="-.128" y="-.03" color-interpolation-filters="sRGB"><feGaussianBlur id="feGaussianBlur3701" stdDeviation=".65"/></filter><filter id="filter3616" color-interpolation-filters="sRGB"><feGaussianBlur id="feGaussianBlur3618" stdDeviation=".572"/></filter><filter id="filter3671" width="1.262" height="1.267" x="-.131" y="-.133" color-interpolation-filters="sRGB"><feGaussianBlur id="feGaussianBlur3673" stdDeviation=".616"/></filter><filter id="filter3586" color-interpolation-filters="sRGB"><feGaussianBlur id="feGaussianBlur3588" stdDeviation=".307"/></filter><filter id="filter3749" width="1.043" height="1.216" x="-.022" y="-.108" color-interpolation-filters="sRGB"><feGaussianBlur id="feGaussianBlur3751" stdDeviation=".318"/></filter><filter id="filter3934" color-interpolation-filters="sRGB"><feGaussianBlur id="feGaussianBlur3936" stdDeviation=".082"/></filter><filter id="filter3904" color-interpolation-filters="sRGB"><feGaussianBlur id="feGaussianBlur3906" stdDeviation=".146"/></filter><linearGradient id="linearGradient3295" x1="371.56" x2="233.2" y1="103.64" y2="110.32" gradientUnits="userSpaceOnUse"><stop id="stop4378" offset="0" stop-color="#3771c8"/><stop id="stop4380" offset="1" stop-color="#61b2e7"/></linearGradient><linearGradient id="linearGradient3299" x1="414.12" x2="415.77" y1="68.351" y2="193.79" gradientUnits="userSpaceOnUse"><stop id="stop4346" offset="0" stop-color="#61b2e7"/><stop id="stop4348" offset="1" stop-color="#3771c8"/></linearGradient><linearGradient id="linearGradient3301" x1="387.63" x2="385.74" y1="86.024" y2="84.988" gradientUnits="userSpaceOnUse"><stop id="stop4372" offset="0" stop-color="#61b2e7"/><stop id="stop4374" offset="1" stop-color="#3d8cd7"/></linearGradient><radialGradient id="radialGradient3303" cx="425.05" cy="164.79" r="4.487" gradientTransform="matrix(2.7147,-0.037117,0.12248,8.9582,-706.71,-1308.2)" gradientUnits="userSpaceOnUse" xlink:href="#linearGradient3514"/><linearGradient id="linearGradient3514"><stop id="stop3516" offset="0" stop-color="#fff" stop-opacity=".005"/><stop id="stop3518" offset="1" stop-color="#fff"/></linearGradient><linearGradient id="linearGradient3305" x1="494.38" x2="396.05" y1="106.75" y2="217.15" gradientUnits="userSpaceOnUse"><stop id="stop4334" offset="0" stop-color="#61b2e7"/><stop id="stop4336" offset="1" stop-color="#3d8cd7"/></linearGradient><radialGradient id="radialGradient3309" cx="425.05" cy="164.79" r="4.487" gradientTransform="matrix(2.7147,-0.037117,0.12248,8.9582,-720.27,-1301.6)" gradientUnits="userSpaceOnUse" xlink:href="#linearGradient3514"/><radialGradient id="radialGradient3311" cx="425.05" cy="164.79" r="4.487" gradientTransform="matrix(2.7147,-0.037117,0.12248,8.9582,-734.56,-1295)" gradientUnits="userSpaceOnUse" xlink:href="#linearGradient3514"/><radialGradient id="radialGradient3313" cx="425.05" cy="164.79" r="4.487" gradientTransform="matrix(2.7147,-0.037117,0.12248,8.9582,-747.39,-1289.1)" gradientUnits="userSpaceOnUse" xlink:href="#linearGradient3514"/><linearGradient id="linearGradient3315" x1="439.71" x2="435.69" y1="144.97" y2="118.22" gradientUnits="userSpaceOnUse" xlink:href="#linearGradient3546"/><linearGradient id="linearGradient3546"><stop id="stop3548" offset="0" stop-color="#216908"/><stop id="stop3550" offset="1" stop-color="#2e3436"/></linearGradient><linearGradient id="linearGradient3317" x1="499.45" x2="388.79" y1="95.135" y2="145.7" gradientUnits="userSpaceOnUse"><stop id="stop4366" offset="0" stop-color="#61b2e7"/><stop id="stop4368" offset="1" stop-color="#3d8cd7"/></linearGradient><linearGradient id="linearGradient3319" x1="377.8" x2="395.66" y1="106.49" y2="106.49" gradientUnits="userSpaceOnUse"><stop id="stop4384" offset="0" stop-color="#3771c8"/><stop id="stop4386" offset=".679" stop-color="#3771c8"/><stop id="stop4388" offset="1" stop-color="#fdffff"/></linearGradient><linearGradient id="linearGradient3321" x1="311.02" x2="387.84" y1="109.02" y2="109.02" gradientTransform="translate(-0.38866,-0.12955)" gradientUnits="userSpaceOnUse" xlink:href="#linearGradient3546"/><linearGradient id="linearGradient3323" x1="383.48" x2="270.51" y1="148.21" y2="123.34" gradientUnits="userSpaceOnUse"><stop id="stop4354" offset="0" stop-color="#61b2e7"/><stop id="stop4356" offset="1" stop-color="#3771c8"/></linearGradient><linearGradient id="linearGradient3325" x1="384.69" x2="397.04" y1="143.94" y2="143.94" gradientUnits="userSpaceOnUse"><stop id="stop4360" offset="0" stop-color="#61b2e7"/><stop id="stop4362" offset="1" stop-color="#3771c8"/></linearGradient><linearGradient id="linearGradient3329" x1="392.09" x2="389.89" y1="151.93" y2="60.323" gradientTransform="translate(4.1109e-6,0)" gradientUnits="userSpaceOnUse" xlink:href="#linearGradient3436"/><linearGradient id="linearGradient3436"><stop id="stop3438" offset="0" stop-color="#fff"/><stop id="stop3440" offset="1" stop-color="#fff" stop-opacity="0"/></linearGradient><linearGradient id="linearGradient3331" x1="384.68" x2="395.12" y1="184.91" y2="184.91" gradientUnits="userSpaceOnUse" xlink:href="#linearGradient3474"/><linearGradient id="linearGradient3474"><stop id="stop3476" offset="0" stop-color="#fff" stop-opacity="0"/><stop id="stop3482" offset=".5" stop-color="#fff" stop-opacity=".495"/><stop id="stop3478" offset="1" stop-color="#fff" stop-opacity="0"/></linearGradient><linearGradient id="linearGradient3333" x1="384.69" x2="397.04" y1="143.94" y2="143.94" gradientUnits="userSpaceOnUse" xlink:href="#linearGradient3474"/><linearGradient id="linearGradient3335" x1="414.81" x2="323.2" y1="58.125" y2="181.98" gradientUnits="userSpaceOnUse" xlink:href="#linearGradient3436"/><linearGradient id="linearGradient3337" x1="330.11" x2="334.25" y1="152.36" y2="135.9" gradientUnits="userSpaceOnUse" xlink:href="#linearGradient3546"/><linearGradient id="linearGradient3339" x1="388.15" x2="480.65" y1="90.294" y2="90.294" gradientUnits="userSpaceOnUse"><stop id="stop3715" offset="0" stop-color="#4d4d4d" stop-opacity="0"/><stop id="stop3721" offset=".5" stop-color="#4d4d4d" stop-opacity=".582"/><stop id="stop3717" offset="1" stop-color="#4d4d4d" stop-opacity="0"/></linearGradient><linearGradient id="linearGradient3341" x1="409.42" x2="394.71" y1="90.203" y2="94.413" gradientUnits="userSpaceOnUse" xlink:href="#linearGradient3546"/><linearGradient id="linearGradient3343" x1="26.362" x2="37.672" y1="24.227" y2="3.776" gradientUnits="userSpaceOnUse"><stop id="stop3862" offset="0" stop-color="#bbbaff"/><stop id="stop3876" offset=".25" stop-color="#caedff"/><stop id="stop3868" offset=".45" stop-color="#fff"/><stop id="stop3874" offset=".607" stop-color="#caedff"/><stop id="stop3870" offset=".708" stop-color="#dddcff"/><stop id="stop3864" offset="1" stop-color="#bbbaff"/></linearGradient><radialGradient id="radialGradient3345" cx="66.254" cy="-6.77" r="1.684" gradientTransform="matrix(1,0,0,1.4059,0,2.5507)" gradientUnits="userSpaceOnUse"><stop id="stop3290" offset="0" stop-color="#fff"/><stop id="stop3292" offset="1" stop-color="#d3d2ff"/></radialGradient></defs><g id="g11999"><g id="g3161" transform="matrix(16.757,0,0,16.757,3.901,-1901.37)"><g id="g3411" transform="translate(-0.12955,107.16)" style="opacity:.5;filter:url(#filter3485)"><g id="g3413" transform="matrix(0.21615,0,0,0.21615,-59.472,-0.26436)"><path id="path3415" d="m 387.42,80.002 -32.219,12.767 c 0,0 -1.1737,-8.9557 -11.005,-6.8127 -7.2523,1.5808 -8.9057,12.631 -10.097,13.731 l -44.746,15.714 2.5286,17.435 95.933,-42.565 c -0.14242,0.11832 0.4925,-10.664 -0.39482,-10.268 z" style="fill-rule:evenodd"/><path id="path3417" d="m 388.01,89.898 -93.229,41.387 9.1523,66.341 84.637,-20.153 -0.56031,-87.574 z m -18.635,10.591 -0.1875,52.208 -8.4062,3.8438 -0.009,-52.378 8.6023,-3.6734 z m -14.156,5.3425 0.34375,53.896 -8.4375,3.875 -0.0668,-54.178 8.1605,-3.5938 z m -14.183,6.9559 0.93322,53.347 -9.25,4.5 0.64769,-54.119 7.6691,-3.7273 z m -13.652,6.0668 0.96019,53.905 -8.4375,3.875 -1.0227,-54.119 8.5,-3.6605 z" style="fill-rule:evenodd"/><path id="path3419" d="m 389.76,79.937 c -0.73767,0.22159 -1.4554,0.48184 -2.1875,0.71875 v 75.031 l 5.875,58.625 85,-42.5 4.2812,-72.5 h 0.0312 l 0.78125,-5.9375 -1.5,0.25 c -30.745,-4.61 -61.436,-9.9961 -92.281,-13.688 z m 33.125,16.812 23.688,2.5 c 1e-5,-10e-6 -0.68022,1.2903 -1.6562,2.25 -1.519,1.36 -11.927,1.5134 -19.969,-0.4375 -1.5592,-0.99881 -2.0625,-4.3125 -2.0625,-4.3125 z" style="fill-rule:evenodd"/><path id="path3421" d="m 389.44,75.594 c -1.6115,0.04237 -3.2188,0.5 -3.2188,0.5 l -29.312,11.719 c 10e-6,-2e-6 -4.4819,-7.8665 -14.281,-4.7812 -9.37,2.947 -10.63,13.937 -10.63,13.937 l -50.969,17.469 c -10e-6,0 -1.9466,0.83445 -1.0625,2.1875 0.90296,1.382 3.25,1.4062 3.25,1.4062 l 103.28,18.16 c -10e-6,0 3.1345,0.89118 4.3438,0.78125 1.2092,-0.10993 4.0938,-1.625 4.0938,-1.625 l 40.031,-16.75 c -1e-5,0 2.6819,-10.327 9.5312,-13.188 6.9726,-2.9117 10.25,3.6562 10.25,3.6562 l 35,-14.656 c 10e-6,3e-6 2.8688,-1.4746 1.7188,-2.8438 -1.0984,-1.3076 -5.2812,-1.625 -5.2812,-1.625 l -92.75,-14.156 c -0.0142,0.06206 -1.7362,-0.09759 -3.3125,-0.1875 -0.22519,-0.01284 -0.45728,-0.0061 -0.6875,0 z m -0.21875,4.0312 c 30.95,3.704 61.743,9.1297 92.594,13.75 -7.7527,3.3646 -15.638,6.4436 -23.406,9.7812 -2.1611,2.688 -3.4798,-0.33191 -5.4375,-1.375 -9.4381,-4.2373 -18.481,4.6711 -21.094,13.156 -12.831,6.7882 -27.65,11.752 -41.219,17.906 -33.284,-5.7599 -66.527,-11.753 -99.812,-17.5 13.031,-4.5949 26.218,-8.8604 39.25,-13.5 6.3671,-1.271 6.007,-6.0937 7.7188,-9.8125 2.902,-7.4062 15.492,-7.498 17.25,0.78125 11.496,-4.122 22.454,-9.6722 34.156,-13.188 z" style="fill-rule:evenodd"/><path id="path3423" d="m 467.36,115.38 0.72572,54.685 -7.6816,3.8088 -0.10787,0.64642 8.4118,-3.7685 0.5625,-0.21875 -0.0312,-0.5625 -0.52697,-55.323 -1.3523,0.73286 z" style="fill-rule:evenodd"/><path id="path3425" d="m 486.76,106.02 -92.312,43.219 -0.375,68.906 86.469,-45.438 6.2188,-66.688 z m -17.719,9.125 -0.1875,54.406 -8.4062,3.8438 -0.375,-53.844 8.9688,-4.4062 z m -14.156,6.625 0.34375,54.812 -8.4375,3.875 -0.25,-55.094 8.3438,-3.5938 z m -14,6.4062 0.75,54.812 -9.25,4.5 0.28125,-55.219 8.2188,-4.0938 z m -13.469,6.25 0.59375,55.188 -8.4375,3.875 -0.65625,-55.219 8.5,-3.8438 z" style="fill-rule:evenodd"/><path id="path3427" d="m 299.72,197.8 85.013,20.52 1.4657,-66.691 -38.972,-6.681 c 0,0 -3.535,6.0149 -5.9074,5.6 -2.3538,-0.41161 -20.469,-3.3717 -23.493,-4.2232 -3.1786,-0.89518 -2.8019,-7.7136 -2.8019,-7.7136 l -29.963,-5.3041 14.657,64.493 z" style="fill-rule:evenodd"/><path id="path3429" d="m 453.8,121.98 0.72572,54.685 -7.6816,3.8088 -0.10787,0.64642 8.4118,-3.7685 0.5625,-0.21875 -0.0312,-0.5625 -0.52697,-55.323 -1.3523,0.73286 z" style="fill-rule:evenodd"/><path id="path3431" d="m 439.51,128.57 0.72572,54.685 -7.6816,3.8088 -0.10787,0.64642 8.4118,-3.7685 0.5625,-0.21875 -0.0312,-0.5625 -0.52697,-55.323 -1.3523,0.73286 z" style="fill-rule:evenodd"/><path id="path3433" d="m 426.68,134.44 0.72572,54.685 -7.6816,3.8088 -0.10787,0.64642 8.4118,-3.7685 0.5625,-0.21875 -0.0312,-0.5625 -0.52697,-55.323 -1.3523,0.73286 z" style="fill-rule:evenodd"/><path id="path3435" d="m 486.06,106.41 -92.707,43.075 0.55266,4.7115 91.974,-46.525 0.18022,-1.2616 z" style="opacity:.5;fill-rule:evenodd;filter:url(#filter3560)"/><path id="path3437" d="m 489.23,94.932 -35,14.656 c 0,0 -3.2774,-6.5679 -10.25,-3.6562 -6.8494,2.8602 -9.5313,13.188 -9.5312,13.188 l -40.031,16.75 c 0,0 -0.0603,0.0301 -0.0625,0.0312 v 13.906 l 96,-45.438 c 1.9304,-13.874 3.4343,-13.613 -1.125,-9.4375 z" style="fill-rule:evenodd"/><path id="path3439" d="m 385.3,81.36 -1.8138,50.267 6.996,1.2956 4.9231,-2.0729 0.25911,-50.267 -6.2186,-0.51822 -4.1458,1.2955 z" style="opacity:.7;fill-rule:evenodd;filter:url(#filter3699)"/><path id="path3441" d="m 387.14,90.101 -76.434,33.795 -0.0768,3.7864 76.822,-36.904 -0.31187,-0.67713 z" style="opacity:.7;fill-rule:evenodd;filter:url(#filter3616)"/><path id="path3443" d="m 279.41,116.64 3.5312,16.531 103.66,19.188 v -16.406 c -0.49322,-0.12437 -1.125,-0.28125 -1.125,-0.28125 l -103.28,-18.16 c 0,0 -1.7184,-0.0157 -2.7812,-0.875 z" style="fill-rule:evenodd"/><path id="path3445" d="m 384.69,135.64 0.13234,16.586 c 0,0 4.7486,0.81125 6.1296,0.65678 1.381,-0.15447 6.0958,-3.9187 6.0958,-3.9187 l -0.87527,-13.98 c -1.332,0.19643 -3.9747,2.418 -5.7593,1.9991 l -5.7232,-1.3433 z" style="fill-rule:evenodd"/><path id="path3447" d="m 385.31,152.14 -0.62792,66.035 c 0,0 4.0639,1.2847 5.5907,1.1946 1.6589,-0.0979 4.8418,-1.5353 4.8418,-1.5353 l -0.41146,-67.398 c -1.3501,0.78349 -2.1262,2.1434 -4.2091,2.0172 l -5.184,-0.31397 z" style="fill-rule:evenodd"/><path id="path3449" d="m 389.44,75.594 c -1.6115,0.04237 -3.2188,0.5 -3.2188,0.5 l -29.312,11.719 c 10e-6,-2e-6 -4.4819,-7.8665 -14.281,-4.7812 -9.37,2.947 -10.63,13.937 -10.63,13.937 l -50.969,17.469 c -10e-6,0 -1.9466,0.83445 -1.0625,2.1875 0.90296,1.382 3.25,1.4062 3.25,1.4062 l 103.28,18.16 c -10e-6,0 3.1345,0.89118 4.3438,0.78125 1.2092,-0.10993 4.0938,-1.625 4.0938,-1.625 l 40.031,-16.75 c -1e-5,0 2.6819,-10.327 9.5312,-13.188 6.9726,-2.9117 10.25,3.6562 10.25,3.6562 l 35,-14.656 c 10e-6,3e-6 2.8688,-1.4746 1.7188,-2.8438 -1.0984,-1.3076 -5.2812,-1.625 -5.2812,-1.625 l -92.75,-14.156 c -0.0142,0.06206 -1.7362,-0.09759 -3.3125,-0.1875 -0.22519,-0.01284 -0.45728,-0.0061 -0.6875,0 z m -0.21875,4.0312 c 30.95,3.704 61.743,9.1297 92.594,13.75 -7.7527,3.3646 -15.638,6.4436 -23.406,9.7812 -2.1611,2.688 -3.4798,-0.33191 -5.4375,-1.375 -9.4381,-4.2373 -18.481,4.6711 -21.094,13.156 -12.831,6.7882 -27.65,11.752 -41.219,17.906 -33.284,-5.7599 -66.527,-11.753 -99.812,-17.5 13.031,-4.5949 26.218,-8.8604 39.25,-13.5 6.3671,-1.271 6.007,-6.0937 7.7188,-9.8125 2.902,-7.4062 15.492,-7.498 17.25,0.78125 11.496,-4.122 22.454,-9.6722 34.156,-13.188 z" style="fill-rule:evenodd"/><path id="path3451" d="m 385.13,151.41 -0.4447,66.768 c 0,0 4.0639,1.2847 5.5907,1.1946 1.6589,-0.0979 4.8418,-1.5353 4.8418,-1.5353 l -0.8695,-67.948 c -1.3501,0.78349 -2.133,2.2275 -4.2091,2.0172 l -4.9092,-0.49719 z" style="fill-rule:evenodd"/><path id="path3453" d="m 384.69,135.64 0.31556,15.487 c 0,0 4.0157,0.99447 5.3968,0.84 1.381,-0.15447 6.6454,-3.0026 6.6454,-3.0026 l -0.87527,-13.98 c -1.332,0.19643 -3.9747,2.418 -5.7593,1.9991 l -5.7232,-1.3433 z" style="fill-rule:evenodd"/><path id="path3455" d="m 280.15,117.38 3.5312,16.531 2.1875,0.40625 3.1875,14 c 45.059,11.391 80.931,33.86 96.688,58.375 l 1.1875,-53.656 0.40625,0.0625 v -16.406 c -0.49321,-0.12436 -1.125,-0.28125 -1.125,-0.28125 l -103.29,-18.16 c 10e-6,1e-5 -1.7184,-0.0157 -2.7812,-0.875 z m 35.625,22.469 32.125,5.9375 c -0.17593,0.29644 -3.533,5.9041 -5.8438,5.5 -2.3538,-0.41161 -20.476,-3.3672 -23.5,-4.2188 -2.805,-0.78995 -2.8115,-5.9596 -2.7812,-7.2188 z" style="fill-rule:evenodd"/><path id="path3457" d="m 385.35,151.49 c 0,7.6802 1.22,8.3937 5.6547,8.3937 4.4348,0 5.6547,-3.4128 5.6547,-11.093 -0.16725,-0.0717 -1.0902,1.6963 -5.838,2.9729 -3.0404,0.0154 -5.4607,-0.18937 -5.4715,-0.27365 z" transform="matrix(1,0,0,0.80184,-0.40438,29.948)" style="opacity:.4;filter:url(#filter3671)"/><path id="path3459" d="m 285.3,133.42 0.30857,1.1999 100.12,20.935 0.24089,-3.9518 -100.67,-18.183 z" style="opacity:.5;fill-rule:evenodd;filter:url(#filter3586)"/><path id="path3461" d="m 387.67,89.645 35.207,6.8371 40.484,4.9689 17.284,-7.912 c 0,0 -84.704,-13.395 -88.615,-13.474 -3.6525,-0.0731 -3.8866,0.25911 -3.8866,0.25911 l -0.47376,9.3206 z" style="opacity:.7;fill-rule:evenodd"/><path id="path3463" d="m 392,89.455 c -0.87047,-0.06941 -1.7386,-0.12129 -3.042,0.08464 -1.31,0.206 -2.08,1.085 -2.08,1.085 l 0.1875,0.96875 c 0,0 1.3523,0.18493 2.6341,-0.01759 1.2818,-0.20252 2.5875,-0.32627 3.1807,-0.27897 1.3676,0.10905 3.6403,0.55567 3.6403,0.55567 l 25.723,4.6006 -2.0797,-1 -23.05,-4.829 c 0,0 -3.5659,-1.0456 -5.1256,-1.1699 z" style="opacity:.5;fill-rule:evenodd;filter:url(#filter3749)"/></g><path id="path3465" d="m 16.752,17.633 0.86352,1.0205 8.1642,-9.8128 c 2.8062,0.34859 19.015,2.3378 19.155,3.1401 0.12638,0.72594 -8.7922,11.932 -8.7922,11.932 l 0.0785,0.94202 1.099,-0.157 9.1847,-12.325 -0.31401,-1.3345 c -0.145,-0.616 -15.006,-3.378 -20.725,-3.3759 -1.919,0.8281 -8.714,9.9699 -8.714,9.9699 z" style="fill-opacity:.40357002;fill-rule:evenodd;filter:url(#filter3934)"/><path id="path3467" d="m 67.368,-6.2834 c 0,0.93016 -0.75405,1.6842 -1.6842,1.6842 -0.93016,0 -1.6842,-0.75405 -1.6842,-1.6842 0,-0.93016 0.75405,-1.6842 1.6842,-1.6842 0.93016,0 1.6842,0.75405 1.6842,1.6842 z" transform="matrix(0.6899,0,0,0.67067,-8.3968,28.542)" style="opacity:.7;fill-opacity:.40357002"/><g id="g3469" transform="translate(0.38866,-0.32389)" style="fill-rule:evenodd"><path id="path3471" d="m 16.363,17.957 0.86352,1.0205 8.1642,-9.8128 c 2.8062,0.34859 19.015,2.3378 19.155,3.1401 0.12638,0.72594 -8.7922,11.932 -8.7922,11.932 l 0.0785,0.94202 1.099,-0.157 9.1847,-12.325 -0.31401,-1.3345 c -0.145,-0.616 -15.006,-3.3781 -20.725,-3.376 -1.918,0.8281 -8.714,9.97 -8.714,9.97 z" style="stroke-width:0"/><path id="path3473" d="M 16.972,18.138 24.939,8.6802" style="stroke:#fff;stroke-width:.5;stroke-opacity:.65357002;filter:url(#filter3904)"/><path id="path3475" d="M 36.534,24.615 45.441,12.372" transform="matrix(0.87605,0,0,0.87605,4.4975,3.0821)" style="stroke:#fff;stroke-width:.5;stroke-opacity:.675;filter:url(#filter3904)"/></g><path id="path3477" d="m 67.368,-6.2834 c 0,0.93016 -0.75405,1.6842 -1.6842,1.6842 -0.93016,0 -1.6842,-0.75405 -1.6842,-1.6842 0,-0.93016 0.75405,-1.6842 1.6842,-1.6842 0.93016,0 1.6842,0.75405 1.6842,1.6842 z" transform="matrix(0.6899,0,0,0.67067,-30.062,24.649)" style="opacity:.7;fill-opacity:.40357002"/><path id="path3479" d="m 67.368,-6.2834 c 0,0.93016 -0.75405,1.6842 -1.6842,1.6842 -0.93016,0 -1.6842,-0.75405 -1.6842,-1.6842 0,-0.93016 0.75405,-1.6842 1.6842,-1.6842 0.93016,0 1.6842,0.75405 1.6842,1.6842 z" transform="matrix(0.48242,0,0,0.46897,-16.371,23.309)"/></g><g id="g3296" transform="translate(0,106)"><g id="g3753" transform="matrix(0.21615,0,0,0.21615,-59.472,-0.26436)"><path id="path2453" d="m 387.42,80.002 -32.219,12.767 c 0,0 -1.1737,-8.9557 -11.005,-6.8127 -7.2523,1.5808 -8.9057,12.631 -10.097,13.731 l -44.746,15.714 2.5286,17.435 95.933,-42.565 c -0.14242,0.11832 0.4925,-10.664 -0.39482,-10.268 z" style="fill:url(#linearGradient3295);fill-rule:evenodd"/><path id="path2451" d="m 388.01,89.898 -93.229,41.387 9.1523,66.341 84.637,-20.153 -0.56031,-87.574 z m -18.635,10.591 -0.1875,52.208 -8.4062,3.8438 -0.009,-52.378 8.6023,-3.6734 z m -14.156,5.3425 0.34375,53.896 -8.4375,3.875 -0.0668,-54.178 8.1605,-3.5938 z m -14.183,6.9559 0.93322,53.347 -9.25,4.5 0.64769,-54.119 7.6691,-3.7273 z m -13.652,6.0668 0.96019,53.905 -8.4375,3.875 -1.0227,-54.119 8.5,-3.6605 z" style="fill:#3771c8;fill-rule:evenodd"/><path id="path2441" d="m 389.76,79.937 c -0.73767,0.22159 -1.4554,0.48184 -2.1875,0.71875 v 75.031 l 5.875,58.625 85,-42.5 4.2812,-72.5 h 0.0312 l 0.78125,-5.9375 -1.5,0.25 c -30.745,-4.61 -61.436,-9.9961 -92.281,-13.688 z m 33.125,16.812 23.688,2.5 c 1e-5,-10e-6 -0.68022,1.2903 -1.6562,2.25 -1.519,1.36 -11.927,1.5134 -19.969,-0.4375 -1.5592,-0.99881 -2.0625,-4.3125 -2.0625,-4.3125 z" style="fill:url(#linearGradient3299);fill-rule:evenodd"/><path id="path2386" d="m 389.44,75.594 c -1.6115,0.04237 -3.2188,0.5 -3.2188,0.5 l -29.312,11.719 c 10e-6,-2e-6 -4.4819,-7.8665 -14.281,-4.7812 -9.37,2.947 -10.63,13.937 -10.63,13.937 l -50.969,17.469 c -10e-6,0 -1.9466,0.83445 -1.0625,2.1875 0.90296,1.382 3.25,1.4062 3.25,1.4062 l 103.28,18.16 c -10e-6,0 3.1345,0.89118 4.3438,0.78125 1.2092,-0.10993 4.0938,-1.625 4.0938,-1.625 l 40.031,-16.75 c -1e-5,0 2.6819,-10.327 9.5312,-13.188 6.9726,-2.9117 10.25,3.6562 10.25,3.6562 l 35,-14.656 c 10e-6,3e-6 2.8688,-1.4746 1.7188,-2.8438 -1.0984,-1.3076 -5.2812,-1.625 -5.2812,-1.625 l -92.75,-14.156 c -0.0142,0.06206 -1.7362,-0.09759 -3.3125,-0.1875 -0.22519,-0.01284 -0.45728,-0.0061 -0.6875,0 z m -0.21875,4.0312 c 30.95,3.704 61.743,9.1297 92.594,13.75 -7.7527,3.3646 -15.638,6.4436 -23.406,9.7812 -2.1611,2.688 -3.4798,-0.33191 -5.4375,-1.375 -9.4381,-4.2373 -18.481,4.6711 -21.094,13.156 -12.831,6.7882 -27.65,11.752 -41.219,17.906 -33.284,-5.7599 -66.527,-11.753 -99.812,-17.5 13.031,-4.5949 26.218,-8.8604 39.25,-13.5 6.3671,-1.271 6.007,-6.0937 7.7188,-9.8125 2.902,-7.4062 15.492,-7.498 17.25,0.78125 11.496,-4.122 22.454,-9.6722 34.156,-13.188 z" style="fill:url(#linearGradient3301);fill-rule:evenodd"/><path id="path3534" d="m 467.36,115.38 0.72572,54.685 -7.6816,3.8088 -0.10787,0.64642 8.4118,-3.7685 0.5625,-0.21875 -0.0312,-0.5625 -0.52697,-55.323 -1.3523,0.73286 z" style="fill:url(#radialGradient3303);fill-rule:evenodd"/><path id="path2397" d="m 486.76,106.02 -92.312,43.219 -0.375,68.906 86.469,-45.438 6.2188,-66.688 z m -17.719,9.125 -0.1875,54.406 -8.4062,3.8438 -0.375,-53.844 8.9688,-4.4062 z m -14.156,6.625 0.34375,54.812 -8.4375,3.875 -0.25,-55.094 8.3438,-3.5938 z m -14,6.4062 0.75,54.812 -9.25,4.5 0.28125,-55.219 8.2188,-4.0938 z m -13.469,6.25 0.59375,55.188 -8.4375,3.875 -0.65625,-55.219 8.5,-3.8438 z" style="fill:url(#linearGradient3305);fill-rule:evenodd"/><path id="path2409" d="m 299.72,197.8 85.013,20.52 1.4657,-66.691 -38.972,-6.681 c 0,0 -3.535,6.0149 -5.9074,5.6 -2.3538,-0.41161 -20.469,-3.3717 -23.493,-4.2232 -3.1786,-0.89518 -2.8019,-7.7136 -2.8019,-7.7136 l -29.963,-5.3041 14.657,64.493 z" style="fill:#3d8cd7;fill-rule:evenodd"/><path id="path3530" d="m 453.8,121.98 0.72572,54.685 -7.6816,3.8088 -0.10787,0.64642 8.4118,-3.7685 0.5625,-0.21875 -0.0312,-0.5625 -0.52697,-55.323 -1.3523,0.73286 z" style="fill:url(#radialGradient3309);fill-rule:evenodd"/><path id="path3526" d="m 439.51,128.57 0.72572,54.685 -7.6816,3.8088 -0.10787,0.64642 8.4118,-3.7685 0.5625,-0.21875 -0.0312,-0.5625 -0.52697,-55.323 -1.3523,0.73286 z" style="fill:url(#radialGradient3311);fill-rule:evenodd"/><path id="path3506" d="m 426.68,134.44 0.72572,54.685 -7.6816,3.8088 -0.10787,0.64642 8.4118,-3.7685 0.5625,-0.21875 -0.0312,-0.5625 -0.52697,-55.323 -1.3523,0.73286 z" style="fill:url(#radialGradient3313);fill-rule:evenodd"/><path id="path3538" d="m 486.06,106.41 -92.707,43.075 0.55266,4.7115 91.974,-46.525 0.18022,-1.2616 z" style="opacity:.5;fill:url(#linearGradient3315);fill-rule:evenodd;filter:url(#filter3560)"/><path id="path2418" d="m 489.23,94.932 -35,14.656 c 0,0 -3.2774,-6.5679 -10.25,-3.6562 -6.8494,2.8602 -9.5313,13.188 -9.5312,13.188 l -40.031,16.75 c 0,0 -0.0603,0.0301 -0.0625,0.0312 v 13.906 l 96,-45.438 c 1.9304,-13.874 3.4343,-13.613 -1.125,-9.4375 z" style="fill:url(#linearGradient3317);fill-rule:evenodd"/><path id="path3675" d="m 385.3,81.36 -1.8138,50.267 6.996,1.2956 4.9231,-2.0729 0.25911,-50.267 -6.2186,-0.51822 -4.1458,1.2955 z" style="opacity:.7;fill:url(#linearGradient3319);fill-rule:evenodd;filter:url(#filter3699)"/><path id="path3590" d="m 387.14,90.101 -76.434,33.795 -0.0768,3.7864 76.822,-36.904 -0.31187,-0.67713 z" style="opacity:.7;fill:url(#linearGradient3321);fill-rule:evenodd;filter:url(#filter3616)"/><path id="path2420" d="m 279.41,116.64 3.5312,16.531 103.66,19.188 v -16.406 c -0.49322,-0.12437 -1.125,-0.28125 -1.125,-0.28125 l -103.28,-18.16 c 0,0 -1.7184,-0.0157 -2.7812,-0.875 z" style="fill:url(#linearGradient3323);fill-rule:evenodd"/><path id="path2455" d="m 384.69,135.64 0.13234,16.586 c 0,0 4.7486,0.81125 6.1296,0.65678 1.381,-0.15447 6.0958,-3.9187 6.0958,-3.9187 l -0.87527,-13.98 c -1.332,0.19643 -3.9747,2.418 -5.7593,1.9991 l -5.7232,-1.3433 z" style="fill:url(#linearGradient3325);fill-rule:evenodd"/><path id="path2459" d="m 385.31,152.14 -0.62792,66.035 c 0,0 4.0639,1.2847 5.5907,1.1946 1.6589,-0.0979 4.8418,-1.5353 4.8418,-1.5353 l -0.41146,-67.398 c -1.3501,0.78349 -2.1262,2.1434 -4.2091,2.0172 l -5.184,-0.31397 z" style="fill:#61b2e7;fill-rule:evenodd"/><path id="path3434" d="m 389.44,75.594 c -1.6115,0.04237 -3.2188,0.5 -3.2188,0.5 l -29.312,11.719 c 10e-6,-2e-6 -4.4819,-7.8665 -14.281,-4.7812 -9.37,2.947 -10.63,13.937 -10.63,13.937 l -50.969,17.469 c -10e-6,0 -1.9466,0.83445 -1.0625,2.1875 0.90296,1.382 3.25,1.4062 3.25,1.4062 l 103.28,18.16 c -10e-6,0 3.1345,0.89118 4.3438,0.78125 1.2092,-0.10993 4.0938,-1.625 4.0938,-1.625 l 40.031,-16.75 c -1e-5,0 2.6819,-10.327 9.5312,-13.188 6.9726,-2.9117 10.25,3.6562 10.25,3.6562 l 35,-14.656 c 10e-6,3e-6 2.8688,-1.4746 1.7188,-2.8438 -1.0984,-1.3076 -5.2812,-1.625 -5.2812,-1.625 l -92.75,-14.156 c -0.0142,0.06206 -1.7362,-0.09759 -3.3125,-0.1875 -0.22519,-0.01284 -0.45728,-0.0061 -0.6875,0 z m -0.21875,4.0312 c 30.95,3.704 61.743,9.1297 92.594,13.75 -7.7527,3.3646 -15.638,6.4436 -23.406,9.7812 -2.1611,2.688 -3.4798,-0.33191 -5.4375,-1.375 -9.4381,-4.2373 -18.481,4.6711 -21.094,13.156 -12.831,6.7882 -27.65,11.752 -41.219,17.906 -33.284,-5.7599 -66.527,-11.753 -99.812,-17.5 13.031,-4.5949 26.218,-8.8604 39.25,-13.5 6.3671,-1.271 6.007,-6.0937 7.7188,-9.8125 2.902,-7.4062 15.492,-7.498 17.25,0.78125 11.496,-4.122 22.454,-9.6722 34.156,-13.188 z" style="fill:url(#linearGradient3329);fill-rule:evenodd"/><path id="path3472" d="m 385.13,151.41 -0.4447,66.768 c 0,0 4.0639,1.2847 5.5907,1.1946 1.6589,-0.0979 4.8418,-1.5353 4.8418,-1.5353 l -0.8695,-67.948 c -1.3501,0.78349 -2.133,2.2275 -4.2091,2.0172 l -4.9092,-0.49719 z" style="fill:url(#linearGradient3331);fill-rule:evenodd"/><path id="path3484" d="m 384.69,135.64 0.31556,15.487 c 0,0 4.0157,0.99447 5.3968,0.84 1.381,-0.15447 6.6454,-3.0026 6.6454,-3.0026 l -0.87527,-13.98 c -1.332,0.19643 -3.9747,2.418 -5.7593,1.9991 l -5.7232,-1.3433 z" style="fill:url(#linearGradient3333);fill-rule:evenodd"/><path id="path3488" d="m 280.15,117.38 3.5312,16.531 2.1875,0.40625 3.1875,14 c 45.059,11.391 80.931,33.86 96.688,58.375 l 1.1875,-53.656 0.40625,0.0625 v -16.406 c -0.49321,-0.12436 -1.125,-0.28125 -1.125,-0.28125 l -103.29,-18.16 c 10e-6,1e-5 -1.7184,-0.0157 -2.7812,-0.875 z m 35.625,22.469 32.125,5.9375 c -0.17593,0.29644 -3.533,5.9041 -5.8438,5.5 -2.3538,-0.41161 -20.476,-3.3672 -23.5,-4.2188 -2.805,-0.78995 -2.8115,-5.9596 -2.7812,-7.2188 z" style="fill:url(#linearGradient3335);fill-rule:evenodd"/><path id="path3620" d="m 385.35,151.49 c 0,7.6802 1.22,8.3937 5.6547,8.3937 4.4348,0 5.6547,-3.4128 5.6547,-11.093 -0.16725,-0.0717 -1.0902,1.6963 -5.838,2.9729 -3.0404,0.0154 -5.4607,-0.18937 -5.4715,-0.27365 z" transform="matrix(1,0,0,0.80184,-0.40438,29.948)" style="opacity:.4;fill:#2e3436;filter:url(#filter3671)"/><path id="path3564" d="m 285.3,133.42 0.30857,1.1999 100.12,20.935 0.24089,-3.9518 -100.67,-18.183 z" style="opacity:.5;fill:url(#linearGradient3337);fill-rule:evenodd;filter:url(#filter3586)"/><path id="path3703" d="m 387.67,89.645 35.207,6.8371 40.484,4.9689 17.284,-7.912 c 0,0 -84.704,-13.395 -88.615,-13.474 -3.6525,-0.0731 -3.8866,0.25911 -3.8866,0.25911 l -0.47376,9.3206 z" style="opacity:.7;fill:url(#linearGradient3339);fill-rule:evenodd"/><path id="path3723" d="m 392,89.455 c -0.87047,-0.06941 -1.7386,-0.12129 -3.042,0.08464 -1.31,0.206 -2.08,1.085 -2.08,1.085 l 0.1875,0.96875 c 0,0 1.3523,0.18493 2.6341,-0.01759 1.2818,-0.20252 2.5875,-0.32627 3.1807,-0.27897 1.3676,0.10905 3.6403,0.55567 3.6403,0.55567 l 25.723,4.6006 -2.0797,-1 -23.05,-4.829 c 0,0 -3.5659,-1.0456 -5.1256,-1.1699 z" style="opacity:.5;fill:url(#linearGradient3341);fill-rule:evenodd;filter:url(#filter3749)"/></g><path id="path3921" d="m 16.752,17.633 0.86352,1.0205 8.1642,-9.8128 c 2.8062,0.34859 19.015,2.3378 19.155,3.1401 0.12638,0.72594 -8.7922,11.932 -8.7922,11.932 l 0.0785,0.94202 1.099,-0.157 9.1847,-12.325 -0.31401,-1.3345 c -0.145,-0.616 -15.006,-3.378 -20.725,-3.3759 -1.919,0.8281 -8.714,9.9699 -8.714,9.9699 z" style="fill-opacity:.40357002;fill-rule:evenodd;filter:url(#filter3934)"/><path id="path2512" d="m 67.368,-6.2834 c 0,0.93016 -0.75405,1.6842 -1.6842,1.6842 -0.93016,0 -1.6842,-0.75405 -1.6842,-1.6842 0,-0.93016 0.75405,-1.6842 1.6842,-1.6842 0.93016,0 1.6842,0.75405 1.6842,1.6842 z" transform="matrix(0.6899,0,0,0.67067,-8.3968,28.542)" style="opacity:.7;fill-opacity:.40357002"/><g id="g3912" transform="translate(0.38866,-0.32389)"><path id="path3828" d="m 16.363,17.957 0.86352,1.0205 8.1642,-9.8128 c 2.8062,0.34859 19.015,2.3378 19.155,3.1401 0.12638,0.72594 -8.7922,11.932 -8.7922,11.932 l 0.0785,0.94202 1.099,-0.157 9.1847,-12.325 -0.31401,-1.3345 c -0.145,-0.616 -15.006,-3.3781 -20.725,-3.376 -1.918,0.8281 -8.714,9.97 -8.714,9.97 z" style="fill:url(#linearGradient3343);fill-rule:evenodd;stroke-width:0"/><path id="path3890-4" d="M 16.972,18.138 24.939,8.6802" style="fill:none;stroke:#fff;stroke-width:.5;stroke-opacity:.65357002;filter:url(#filter3904)"/><path id="path3908" d="M 36.534,24.615 45.441,12.372" transform="matrix(0.87605,0,0,0.87605,4.4975,3.0821)" style="fill:none;stroke:#fff;stroke-width:.5;stroke-opacity:.675;filter:url(#filter3904)"/></g><path id="path2514" d="m 67.368,-6.2834 c 0,0.93016 -0.75405,1.6842 -1.6842,1.6842 -0.93016,0 -1.6842,-0.75405 -1.6842,-1.6842 0,-0.93016 0.75405,-1.6842 1.6842,-1.6842 0.93016,0 1.6842,0.75405 1.6842,1.6842 z" transform="matrix(0.6899,0,0,0.67067,-30.062,24.649)" style="opacity:.7;fill-opacity:.40357002"/><path id="path2516" d="m 67.368,-6.2834 c 0,0.93016 -0.75405,1.6842 -1.6842,1.6842 -0.93016,0 -1.6842,-0.75405 -1.6842,-1.6842 0,-0.93016 0.75405,-1.6842 1.6842,-1.6842 0.93016,0 1.6842,0.75405 1.6842,1.6842 z" transform="matrix(0.48242,0,0,0.46897,-16.371,23.309)" style="fill:url(#radialGradient3345)"/></g></g><path id="path3623-5-9-4-0-0" d="m 73.858767,472.24443 c 46.567573,92.19908 136.845803,-29.72469 145.131463,-30.48099 7.62546,-7.64032 40.22157,-11.01455 80.07243,60.93312 6.67717,10.21962 26.12026,21.64661 36.0327,4.3709 -1.56957,1.4406 -15.31822,-15.87224 -24.02178,-25.41647 10.36393,6.92533 19.2616,6.41264 32.02899,25.53062 9.18689,2.68801 20.5117,7.14819 35.03183,21.47456 10.92229,15.2255 -21.29248,2.82034 -34.03096,2.89055 -24.02165,7.63219 -21.0807,34.3169 -39.03533,23.79484 -11.71546,33.00736 -21.55296,31.34242 -28.02537,22.74625 27.38071,-15.81505 12.82218,-30.397 0,-33.75374 -17.93635,0.15451 -15.31319,27.16485 -4.00361,65.52163 32.69641,8.13358 55.38354,25.72436 79.07175,32.71026 -18.51308,8.457 -30.50565,-12.28306 -85.07722,-22.66972 C 253.46641,565.1061 222.92361,512.11902 178.95393,504.84318 96.686159,545.80945 85.449835,511.61107 73.858767,472.24443 z" style="fill:#e7be19;fill-opacity:1;stroke:none"/></g><metadata id="metadata167"/></svg>