<svg xmlns="http://www.w3.org/2000/svg" xmlns:svg="http://www.w3.org/2000/svg" id="svg2" width="920" height="738" version="1.1"><metadata id="metadata266"/><title id="title4">Chronojump encoder</title><defs id="defs6"><linearGradient id="__yearline" x1="0" x2="1" y1="0" y2="0"><stop id="stop9" offset="0" stop-color="#037" stop-opacity="1"/><stop id="stop11" offset="1" stop-color="#37d" stop-opacity="1"/></linearGradient><linearGradient id="__infobox_fill" x1="0" x2="0" y1="0" y2="1"><stop id="stop14" offset="0" stop-color="#51b1f1" stop-opacity="1"/><stop id="stop16" offset="1" stop-color="#3181f1" stop-opacity="1"/></linearGradient><linearGradient id="__infobox_stroke" x1="0" x2="0" y1="0" y2="1"><stop id="stop19" offset="0" stop-color="#3181f1" stop-opacity="1"/><stop id="stop21" offset="1" stop-color="#51b1f1" stop-opacity="1"/></linearGradient><filter id="__infobox_shadow" color-interpolation-filters="sRGB"><feGaussianBlur id="feGaussianBlur24" stdDeviation="5"/></filter><circle id="__connectors_start" cx="0" cy="0" r="6" stroke="none"/><rect id="__fadeout" width="0" height="1" x="0" y="-.5"/></defs><g id="layer_background"><rect id="rect29" width="920" height="738" x="0" y="0" fill="#fff" rx="10" ry="10"/></g><g id="layer_yearrulers" stroke="#eee" stroke-width="1"><line id="line32" x1="10" x2="10" y1="0" y2="738" stroke="#ddd" stroke-width="2"/><line id="line34" x1="47" x2="47" y1="0" y2="738"/><line id="line36" x1="85" x2="85" y1="0" y2="738"/><line id="line38" x1="122" x2="122" y1="0" y2="738"/><line id="line40" x1="160" x2="160" y1="0" y2="738"/><line id="line42" x1="197" x2="197" y1="0" y2="738"/><line id="line44" x1="235" x2="235" y1="0" y2="738"/><line id="line46" x1="272" x2="272" y1="0" y2="738"/><line id="line48" x1="310" x2="310" y1="0" y2="738"/><line id="line50" x1="347" x2="347" y1="0" y2="738"/><line id="line52" x1="385" x2="385" y1="0" y2="738"/><line id="line54" x1="422" x2="422" y1="0" y2="738"/><line id="line56" x1="460" x2="460" y1="0" y2="738" stroke="#ddd" stroke-width="2"/><line id="line58" x1="497" x2="497" y1="0" y2="738"/><line id="line60" x1="535" x2="535" y1="0" y2="738"/><line id="line62" x1="572" x2="572" y1="0" y2="738"/><line id="line64" x1="610" x2="610" y1="0" y2="738"/><line id="line66" x1="647" x2="647" y1="0" y2="738"/><line id="line68" x1="685" x2="685" y1="0" y2="738"/><line id="line70" x1="722" x2="722" y1="0" y2="738"/><line id="line72" x1="760" x2="760" y1="0" y2="738"/><line id="line74" x1="797" x2="797" y1="0" y2="738"/><line id="line76" x1="835" x2="835" y1="0" y2="738"/><line id="line78" x1="872" x2="872" y1="0" y2="738"/><line id="line80" x1="910" x2="910" y1="0" y2="738" stroke="#ddd" stroke-width="2"/></g><g id="layer_lines" style="fill:none;stroke-width:1"><path id="__line_Ship__encoders__to__costumers" stroke="red" d="M 427 60 C 604.75,60 486.25,160 664,160 L 664 160 L 683 160" style="stroke-width:1"/><path id="__line_Interviews__with__trainers" stroke="#0f0" d="M 316 60 C 395.5,60 342.5,80 422,80 L 422 80 L 572 80" style="stroke-width:1"/><path id="__line_Decide__final__price" stroke="red" d="M 460 60 C 572.5,60 497.5,100 610,100 L 610 100 L 610 100" style="stroke-width:1"/><path id="__line_Start__reservation__process" stroke="red" d="M 444 60 C 581.25,60 489.75,120 627,120 L 627 120 L 646 120" style="stroke-width:1"/><path id="__line_Buy__n__encoder__units" stroke="red" d="M 435 60 C 594,60 488,140 647,140 L 647 140 L 664 140" style="stroke-width:1"/><path id="__line_-__PROJECT" stroke="#FF8000" d="M -17 60 L 685 60" style="stroke-width:1"/><path id="__line_Fix__encoder__and__Chronopic__in__box" stroke="#ff8000" d="M 277 200 C 515.5,200 356.5,380 595,380 L 595 380 L 627 380" style="stroke-width:1"/><path id="__line_Find__encoder__2.5m" stroke="#0f0" d="M 91 200 C 170.5,200 117.5,220 197,220 L 197 220 L 310 220" style="stroke-width:1"/><path id="__line_Estimate__Chronopic__adjusting__price" stroke="#ff8000" d="M 336 240 C 530.25,240 400.75,360 595,360 L 595 360 L 610 360" style="stroke-width:1"/><path id="__line_Adjust__1__Chronopic" stroke="#0f0" d="M 235 240 C 262.75,240 244.25,260 272,260 L 272 260 L 272 260" style="stroke-width:1"/><path id="__line_Write__firmware" stroke="#0f0" d="M 235 240 C 262.75,240 244.25,280 272,280 L 272 280 L 272 280" style="stroke-width:1"/><path id="__line_Test__firmware" stroke="#0f0" d="M 235 240 C 262.75,240 244.25,300 272,300 L 272 300 L 347 300" style="stroke-width:1"/><path id="__line_Adjust__12__Chronopics" stroke="#0f0" d="M 360 240 C 519,240 413,320 572,320 L 572 320 L 572 320" style="stroke-width:1"/><path id="__line_Document__adjusting__of__Chronopic" stroke="#0f0" d="M 358 240 C 535.75,240 417.25,340 595,340 L 595 340 L 610 340" style="stroke-width:1"/><path id="__line_Adjust__Chronopics" stroke="#ff8000" d="M 85 200 C 197.5,200 122.5,240 235,240 L 235 240 L 610 240" style="stroke-width:1"/><path id="__line_-__HARDWARE" stroke="#FF8000" d="M -17 200 L 627 200" style="stroke-width:1"/><path id="__line_Export__and__Report" stroke="red" d="M 552 460 C 589.5,460 564.5,700 602,700 L 602 700 L 627 700" style="stroke-width:1"/><path id="__line_Write__software__to__read__data__from__Chronopic" stroke="#0f0" d="M 166 420 C 245.5,420 192.5,440 272,440 L 272 440 L 552 440" style="stroke-width:1"/><path id="__line_Fix__bugs__and__add__other__features" stroke="red" d="M 552 460 C 608.25,460 570.75,720 627,720 L 627 720 L 664 720" style="stroke-width:1"/><path id="__line_Graph__data__(basic)" stroke="#0f0" d="M 552 460 C 567,460 557,480 572,480 L 572 480 L 572 480" style="stroke-width:1"/><path id="__line_Recalculate__data" stroke="#0f0" d="M 552 460 C 567,460 557,500 572,500 L 572 500 L 572 500" style="stroke-width:1"/><path id="__line_Add__threads" stroke="#0f0" d="M 552 460 C 567,460 557,520 572,520 L 572 520 L 572 520" style="stroke-width:1"/><path id="__line_Add__feedback__(audio__and__visual)" stroke="#0f0" d="M 552 460 C 567,460 557,540 572,540 L 572 540 L 610 540" style="stroke-width:1"/><path id="__line_Create__GUI" stroke="#ff8000" d="M 552 460 C 567,460 557,560 572,560 L 572 560 L 610 560" style="stroke-width:1"/><path id="__line_Create__SQL__methods" stroke="#0f0" d="M 552 460 C 567,460 557,580 572,580 L 572 580 L 610 580" style="stroke-width:1"/><path id="__line_Store__selected__curves" stroke="#0f0" d="M 572 600 C 594.5,600 579.5,620 602,620 L 602 620 L 627 620" style="stroke-width:1"/><path id="__line_Save__data" stroke="#ff8000" d="M 552 460 C 567,460 557,600 572,600 L 572 600 L 610 600" style="stroke-width:1"/><path id="__line_Define__tests" stroke="#0f0" d="M 552 460 C 589.5,460 564.5,640 602,640 L 602 640 L 627 640" style="stroke-width:1"/><path id="__line_Graphs__crossing__user__variables" stroke="#0f0" d="M 552 460 C 589.5,460 564.5,660 602,660 L 602 660 L 627 660" style="stroke-width:1"/><path id="__line_Graphs__comparing__users" stroke="red" d="M 552 460 C 589.5,460 564.5,680 602,680 L 602 680 L 627 680" style="stroke-width:1"/><path id="__line_Integrate__encoder__in__Chronojump" stroke="#ff8000" d="M 402 420 C 514.5,420 439.5,460 552,460 L 552 460 L 627 460" style="stroke-width:1"/><path id="__line_-__SOFTWARE" stroke="#FF8000" d="M -17 420 L 664 420" style="stroke-width:1"/></g><g id="layer_dots" style="stroke:none"><circle id="__dot_Ship__encoders__to__costumers" cx="664" cy="160" r="8" fill="red" stroke="none"/><circle id="__dot_Interviews__with__trainers" cx="422" cy="80" r="8" fill="#0f0" stroke="none"/><circle id="__dot_Decide__final__price" cx="610" cy="100" r="8" fill="red" stroke="none"/><circle id="__dot_Start__reservation__process" cx="627" cy="120" r="8" fill="red" stroke="none"/><circle id="__dot_Buy__n__encoder__units" cx="647" cy="140" r="8" fill="red" stroke="none"/><circle id="__dot_-__PROJECT" cx="-17" cy="60" r="8" fill="#FF8000" stroke="none"/><circle id="__dot_Fix__encoder__and__Chronopic__in__box" cx="595" cy="380" r="8" fill="#ff8000" stroke="none"/><circle id="__dot_Find__encoder__2.5m" cx="197" cy="220" r="8" fill="#0f0" stroke="none"/><circle id="__dot_Estimate__Chronopic__adjusting__price" cx="595" cy="360" r="8" fill="#ff8000" stroke="none"/><circle id="__dot_Adjust__1__Chronopic" cx="272" cy="260" r="8" fill="#0f0" stroke="none"/><circle id="__dot_Write__firmware" cx="272" cy="280" r="8" fill="#0f0" stroke="none"/><circle id="__dot_Test__firmware" cx="272" cy="300" r="8" fill="#0f0" stroke="none"/><circle id="__dot_Adjust__12__Chronopics" cx="572" cy="320" r="8" fill="#0f0" stroke="none"/><circle id="__dot_Document__adjusting__of__Chronopic" cx="595" cy="340" r="8" fill="#0f0" stroke="none"/><circle id="__dot_Adjust__Chronopics" cx="235" cy="240" r="8" fill="#ff8000" stroke="none"/><circle id="__dot_-__HARDWARE" cx="-17" cy="200" r="8" fill="#FF8000" stroke="none"/><circle id="__dot_Export__and__Report" cx="602" cy="700" r="8" fill="red" stroke="none"/><circle id="__dot_Write__software__to__read__data__from__Chronopic" cx="272" cy="440" r="8" fill="#0f0" stroke="none"/><circle id="__dot_Fix__bugs__and__add__other__features" cx="627" cy="720" r="8" fill="red" stroke="none"/><circle id="__dot_Graph__data__(basic)" cx="572" cy="480" r="8" fill="#0f0" stroke="none"/><circle id="__dot_Recalculate__data" cx="572" cy="500" r="8" fill="#0f0" stroke="none"/><circle id="__dot_Add__threads" cx="572" cy="520" r="8" fill="#0f0" stroke="none"/><circle id="__dot_Add__feedback__(audio__and__visual)" cx="572" cy="540" r="8" fill="#0f0" stroke="none"/><circle id="__dot_Create__GUI" cx="572" cy="560" r="8" fill="#ff8000" stroke="none"/><circle id="__dot_Create__SQL__methods" cx="572" cy="580" r="8" fill="#0f0" stroke="none"/><circle id="__dot_Store__selected__curves" cx="602" cy="620" r="8" fill="#0f0" stroke="none"/><circle id="__dot_Save__data" cx="572" cy="600" r="8" fill="#ff8000" stroke="none"/><circle id="__dot_Define__tests" cx="602" cy="640" r="8" fill="#0f0" stroke="none"/><circle id="__dot_Graphs__crossing__user__variables" cx="602" cy="660" r="8" fill="#0f0" stroke="none"/><circle id="__dot_Graphs__comparing__users" cx="602" cy="680" r="8" fill="red" stroke="none"/><circle id="__dot_Integrate__encoder__in__Chronojump" cx="552" cy="460" r="8" fill="#ff8000" stroke="none"/><circle id="__dot_-__SOFTWARE" cx="-17" cy="420" r="8" fill="#FF8000" stroke="none"/></g><g id="layer_labels" style="font-size:16px;stroke:none;fill:#000;font-family:Liberation Sans,Arial,Helvetica;-inkscape-font-specification:Liberation Sans,Arial,Helvetica"><text id="text152" x="672" y="155">Ship encoders to costumers</text><text id="text154" x="430" y="75">Interviews with trainers</text><text id="text156" x="618" y="95">Decide final price</text><text id="text158" x="635" y="115">Start reservation process</text><text id="text160" x="655" y="135">Buy n encoder units</text><text id="text162" x="-9" y="55">- PROJECT</text><text id="text164" x="603" y="375">Fix encoder and Chronopic in box</text><text id="text166" x="205" y="215">Find encoder 2.5m</text><text id="text168" x="603" y="355">Estimate Chronopic adjusting price</text><text id="text170" x="280" y="255">Adjust 1 Chronopic</text><text id="text172" x="280" y="275">Write firmware</text><text id="text174" x="280" y="295">Test firmware</text><text id="text176" x="580" y="315">Adjust 12 Chronopics</text><text id="text178" x="603" y="335">Document adjusting of Chronopic</text><text id="text180" x="243" y="235">Adjust Chronopics</text><text id="text182" x="-9" y="195">- HARDWARE</text><text id="text184" x="610" y="695">Export and Report</text><text id="text186" x="280" y="435">Write software to read data from Chronopic</text><text id="text188" x="635" y="715">Fix bugs and add other features</text><text id="text190" x="580" y="475">Graph data (basic)</text><text id="text192" x="580" y="495">Recalculate data</text><text id="text194" x="580" y="515">Add threads</text><text id="text196" x="580" y="535">Add feedback (audio and visual)</text><text id="text198" x="580" y="555">Create GUI</text><text id="text200" x="580" y="575">Create SQL methods</text><text id="text202" x="610" y="615">Store selected curves</text><text id="text204" x="580" y="595">Save data</text><text id="text206" x="610" y="635">Define tests</text><text id="text208" x="610" y="655">Graphs crossing user variables</text><text id="text210" x="610" y="675">Graphs comparing users</text><text id="text212" x="560" y="455">Integrate encoder in Chronojump</text><text id="text214" x="-9" y="415">- SOFTWARE</text></g><g id="layer_yearlines" style="stroke:none;fill:url(#__yearline)"><rect id="rect217" width="920" height="30" x="0" y="0" rx="5" ry="5"/><g style="font-size:28px;stroke:none;fill:#fff;font-family:Liberation Sans,Arial,Helvetica;-inkscape-font-specification:Liberation Sans,Arial,Helvetica;text-anchor:middle" id="g219"><text id="text221" x="235" y="25"><tspan id="tspan223">2011</tspan></text><text id="text225" x="685" y="25"><tspan id="tspan227">2012</tspan></text></g></g><g id="layer_infobox" style="stroke:none;fill:#000;font-family:Liberation Sans,Arial,Helvetica;-inkscape-font-specification:Liberation Sans,Arial,Helvetica"><rect id="rect230" width="260" height="122" x="20" y="580" fill="#000" filter="url(#__infobox_shadow)" opacity=".6" rx="10" ry="10"/><rect id="rect232" width="260" height="122" x="20" y="580" fill="url(#__infobox_fill)" stroke="url(#__infobox_stroke)" stroke-width="2" rx="10" ry="10"/><text id="text234" x="26" y="601"><tspan style="font-size:18px;font-weight:700" id="tspan236">Chronojump encoder</tspan></text><text id="text238" x="26" y="614"><tspan style="font-size:12px" id="tspan240">GREEN: Done</tspan></text><text id="text242" x="26" y="629"><tspan style="font-size:12px" id="tspan244">ORANGE: Doing</tspan></text><text id="text246" x="26" y="644"><tspan style="font-size:12px" id="tspan248">RED: Later</tspan></text><text id="text250" x="26" y="659"><tspan style="font-size:12px" id="tspan252">http://chronojump.org</tspan></text><text id="text254" x="26" y="674"><tspan style="font-size:12px" id="tspan256">2012-Jun-4. See complete progress here:</tspan></text><text id="text258" x="26" y="689"><tspan style="font-size:12px" id="tspan260">http://git.gnome.org/browse/chronojump/log/</tspan></text></g></svg>